<svg width="480" height="480" version="1.1" viewBox="0 0 127 127" xmlns="http://www.w3.org/2000/svg" xmlns:xlink="http://www.w3.org/1999/xlink"><text x="21.521696" y="40.165237" fill="#94a3b8" font-family="MiSans" font-size="32.588px" font-weight="500" stroke-width=".29393" style="font-variant-caps:normal;font-variant-east-asian:normal;font-variant-ligatures:normal;font-variant-numeric:normal;line-height:1.25" xml:space="preserve"><tspan x="21.521696" y="40.165237" fill="#94a3b8" font-family="MiSans" font-size="32.588px" font-weight="500" stroke-width=".29393" style="font-variant-caps:normal;font-variant-east-asian:normal;font-variant-ligatures:normal;font-variant-numeric:normal">编  辑</tspan></text><g transform="matrix(1.0538 0 0 1.1712 -6.4142 -7.7788)" fill="#94a3b8" stroke-width=".13328" aria-label="lo"><path d="m45.615 57.425q-1.4069 0-2.0562-0.41125-0.64934-0.41125-0.64934-1.2987 0-0.37517 0.13708-1.0245l1.4646-6.9407h-2.2078l0.31024-1.6234h4.3145l-1.8037 8.6867q-0.02164 0.10101-0.04329 0.21645-0.01443 0.10822-0.01443 0.20202 0 0.56998 1.0101 0.56998h2.0057l-0.32467 1.6234z"/><path d="m53.357 57.562q-1.5079 0-2.3521-0.89465-0.83693-0.90186-0.83693-2.6334 0-1.4285 0.55555-2.5469 0.55555-1.1255 1.5368-1.7749 0.98844-0.64934 2.2727-0.64934 1.645 0 2.4531 0.93072 0.80807 0.92351 0.80807 2.518 0 1.4791-0.56276 2.619-0.55555 1.14-1.5512 1.7893-0.99566 0.64212-2.3232 0.64212zm0.23088-1.7027q0.56276 0 0.95237-0.3391 0.39682-0.3391 0.64212-0.85857 0.25252-0.52669 0.36796-1.0894 0.11544-0.56276 0.11544-1.0101 0-0.89465-0.31746-1.3348-0.31024-0.44732-0.88743-0.44732-0.60605 0-1.0967 0.45454-0.49061 0.44732-0.77921 1.1832t-0.2886 1.6017q0 0.90908 0.33188 1.378 0.3391 0.46175 0.95958 0.46175z"/></g><g transform="matrix(1.0538 0 0 1.1712 -6.4142 -7.7788)" fill="#ef4444" stroke-width=".13328" aria-label="bx"><path d="m28.22 57.562q-0.83693 0-1.3564-0.44011-0.51226-0.44732-0.63491-1.2626l-0.50504 1.4935h-1.9047l2.1861-11.226h2.114l-0.85857 4.3578q0.92351-1.4069 2.3448-1.4069 1.0678 0 1.6739 0.80085t0.60605 2.2366q0 0.64934-0.13708 1.3925t-0.41846 1.4646q-0.28138 0.71427-0.71427 1.2987-0.43289 0.58441-1.0317 0.93794-0.59884 0.35353-1.3636 0.35353zm-0.41125-1.7171q0.52669 0 0.89465-0.35353 0.37518-0.36074 0.60605-0.89465 0.23088-0.54112 0.3391-1.1039 0.10822-0.56276 0.10822-0.98122 0-0.83693-0.2886-1.2698-0.28138-0.43289-0.79364-0.43289-0.55555 0-1.0317 0.46175-0.46897 0.46175-0.75035 1.2049t-0.28138 1.5801q0 0.86579 0.31746 1.3275 0.31746 0.46175 0.88022 0.46175z"/><path d="m35.521 53.067-1.8614-3.795h2.1717l1.0678 2.2871 1.9336-2.2871h2.3953l-3.4415 3.9898 2.0057 4.0908h-2.1573l-1.2265-2.5685-2.1861 2.5685h-2.3953z"/></g><g transform="matrix(1.0538 0 0 1.1712 -6.4142 -7.7788)" fill="#94a3b8" stroke-width=".13328" aria-label="if"><path d="m98.741 48.811q-0.20202 0-0.20202-0.18759l0.41125-2.0851q0.02886-0.1948 0.23088-0.1948h1.6811q0.20202 0 0.20202 0.18759l-0.41125 2.0851q-0.0289 0.1948-0.23088 0.1948zm0.84414 9.603q-1.4069 0-2.0562-0.41125t-0.64934-1.3059q0-0.41125 0.13708-1.0173l0.86579-3.7806h-1.7027l0.31024-1.6234h3.8095l-1.1977 5.505q-0.06494 0.25974-0.06494 0.44011 0 0.56998 1.0101 0.56998h2.0057l-0.32467 1.6234z"/><path d="m106.49 51.899h-1.9697l0.31024-1.6234h1.9697l0.11543-0.56276q0.20924-1.0317 0.56277-1.5873 0.35353-0.56276 1.0101-0.77921 0.65656-0.21645 1.7821-0.21645h1.7316l-0.31024 1.6234h-1.6594q-0.46897 0-0.6782 0.20202-0.20202 0.20202-0.32467 0.77199l-0.11544 0.54833h2.4819l-0.31024 1.6234h-2.4819l-1.2554 6.4573h-2.114z"/></g><g transform="matrix(1.0538 0 0 1.1712 -6.4142 -7.7788)" fill="#ef4444" stroke-width=".13328" aria-label="js"><path d="m82.111 48.811q-0.20202 0-0.20202-0.18037 0-0.02886 0.0072-0.05772l0.39682-2.0346q0.03607-0.1948 0.23088-0.1948h1.6811q0.20202 0 0.20202 0.18037 0 0.02886-0.0072 0.05772l-0.39682 2.0346q-0.02886 0.1948-0.23088 0.1948zm-5.3462 10.981h1.6666q0.72149 0 1.0822-0.3896 0.36074-0.38239 0.55555-1.3564l1.1977-6.1471h-2.1428l0.31024-1.6234h4.2568l-1.5079 7.7704q-0.15873 0.81528-0.36796 1.443-0.20923 0.6277-0.57719 1.0534-0.36796 0.43289-0.98844 0.64934-0.61327 0.22366-1.5945 0.22366h-2.215z"/><path d="m89.045 58.566q-1.4213 0-2.8932-0.50504l0.36796-1.847q1.2987 0.82971 2.6551 0.82971 0.78642 0 1.2337-0.28138 0.45454-0.28138 0.45454-0.77921 0-0.30303-0.22366-0.46897-0.2886-0.23088-1.176-0.4834l-0.63491-0.17316q-1.7027-0.46897-1.7027-2.0779 0-1.2337 0.98122-1.9624 0.98844-0.73592 2.7561-0.73592 0.6277 0 1.241 0.10822 0.62048 0.10101 1.2915 0.3391l-0.36074 1.8326q-1.1255-0.77199-2.3737-0.77199-0.7287 0-1.1472 0.25974-0.41846 0.25252-0.41846 0.67098 0 0.32467 0.27416 0.52669 0.30303 0.20923 1.1832 0.46175l0.5339 0.15151q0.91629 0.25974 1.342 0.77199 0.43289 0.50504 0.43289 1.3203 0 1.3131-1.0101 2.0635-1.0101 0.75035-2.8066 0.75035z"/></g><g transform="matrix(.98475 -.22387 .27712 1.219 -19.879 -10.459)"><g id="a"><g transform="rotate(191.94 35.563 53.421)"><path d="m25.095 28.681 3.703 4.677 1.9406-2.7027z" fill="#999"/><path d="m29.13 31.991s5.2766 3.0523 8.9296 7.8098l0.67963-0.76459c-1.6493-2.9546-9.0167-7.763-9.0167-7.763z" fill="#999"/></g></g></g><g transform="matrix(1.0538 0 0 1.1712 .042292 -5.7399)" fill="#1d4ed8" stroke-width=".2051" aria-label="bxjs"><path d="m44.145 95.55q-1.2879 0-2.0873-0.67728-0.7883-0.68838-0.97705-1.943l-0.7772 2.2983h-2.9312l3.3642-17.276h3.2531l-1.3212 6.7061q1.4212-2.1651 3.6084-2.1651 1.6432 0 2.5759 1.2324 0.93264 1.2324 0.93264 3.4419 0 0.99926-0.21095 2.1429-0.21096 1.1436-0.64397 2.2539-0.43301 1.0992-1.0992 1.9985-0.66617 0.89933-1.5877 1.4434t-2.0984 0.54404zm-0.63286-2.6425q0.81051 0 1.3768-0.54404 0.57735-0.55514 0.93264-1.3768 0.35529-0.83272 0.52184-1.6987t0.16654-1.51q0-1.2879-0.44412-1.9541-0.43301-0.66617-1.2213-0.66617-0.85492 0-1.5877 0.71058-0.72169 0.71058-1.1547 1.8542-0.43301 1.1436-0.43301 2.4315 0 1.3323 0.48853 2.0429 0.48853 0.71058 1.3546 0.71058z"/><path d="m55.381 88.633-2.8645-5.8401h3.342l1.6432 3.5196 2.9756-3.5196h3.6862l-5.2961 6.1399 3.0866 6.2953h-3.3198l-1.8875-3.9526-3.3642 3.9526h-3.6862z"/><path d="m72.701 80.539q-0.31088 0-0.31088-0.27757 0-0.04441 0.0111-0.08882l0.61066-3.131q0.05551-0.29978 0.35529-0.29978h2.587q0.31088 0 0.31088 0.27757 0 0.04441-0.0111 0.08882l-0.61066 3.131q-0.04441 0.29978-0.35529 0.29978zm-8.2272 16.899h2.5648q1.1103 0 1.6654-0.59956 0.55514-0.58845 0.85492-2.0873l1.8431-9.4597h-3.2976l0.47742-2.4981h6.5507l-2.3205 11.958q-0.24426 1.2546-0.56625 2.2206-0.32198 0.96595-0.88823 1.621-0.56625 0.66617-1.5211 0.99926-0.94374 0.34419-2.4537 0.34419h-3.4086z"/><path d="m83.371 95.55q-2.1873 0-4.4523-0.7772l0.56625-2.8423q1.9985 1.2768 4.0859 1.2768 1.2102 0 1.8986-0.43301 0.69948-0.43301 0.69948-1.1991 0-0.46632-0.34419-0.72169-0.44412-0.35529-1.8098-0.74389l-0.97705-0.26647q-2.6203-0.72169-2.6203-3.1976 0-1.8986 1.51-3.02 1.5211-1.1325 4.2413-1.1325 0.96595 0 1.9097 0.16654 0.95485 0.15544 1.9874 0.52184l-0.55514 2.8201q-1.732-1.188-3.6528-1.188-1.1214 0-1.7654 0.3997-0.64397 0.3886-0.64397 1.0326 0 0.49963 0.42191 0.81051 0.46632 0.32198 1.8209 0.71058l0.82161 0.23316q1.4101 0.3997 2.0651 1.188 0.66617 0.7772 0.66617 2.0318 0 2.0207-1.5544 3.1754-1.5544 1.1547-4.319 1.1547z"/></g><use transform="matrix(-1.0002 .83415 .97223 .46534 47.493 8.3469)" xlink:href="#a"/></svg>
