<svg width="480" height="480" version="1.1" viewBox="0 0 127 127" xmlns="http://www.w3.org/2000/svg"><text x="6.139812" y="39.031651" fill="#94a3b8" font-family="MiSans" font-size="23.218px" font-weight="500" stroke-width=".20943" style="font-variant-caps:normal;font-variant-east-asian:normal;font-variant-ligatures:normal;font-variant-numeric:normal;line-height:1.25" xml:space="preserve"><tspan x="6.139812" y="39.031651" fill="#94a3b8" font-family="MiSans" font-size="23.218px" font-weight="500" stroke-width=".20943" style="font-variant-caps:normal;font-variant-east-asian:normal;font-variant-ligatures:normal;font-variant-numeric:normal">喜马拉雅山</tspan></text><g transform="scale(.94858 1.0542)" fill="#94a3b8" stroke-width=".08363" aria-label="uii"><path d="m15.101 49.767q-0.55686 0-0.86471-0.32144-0.30786-0.32144-0.30786-0.91451 0-0.27164 0.07696-0.66551l0.6474-3.3004h1.3174l-0.59307 3.0967q-0.04527 0.23542-0.04527 0.43009 0 0.58855 0.498 0.58855 0.37576 0 0.63835-0.33049 0.26711-0.33049 0.38482-0.92809l0.55233-2.8567h1.3174l-0.98242 5.0705h-1.1861v-0.75153q-0.18562 0.40746-0.57496 0.6474-0.38935 0.23542-0.87829 0.23542z"/><path d="m21.815 43.646q-0.12676 0-0.12676-0.11771l0.25806-1.3084q0.01811-0.12224 0.14487-0.12224h1.0549q0.12676 0 0.12676 0.11771l-0.25806 1.3084q-0.01811 0.12224-0.14487 0.12224zm0.52969 6.0258q-0.88282 0-1.2903-0.25806-0.40746-0.25805-0.40746-0.81944 0-0.25806 0.08602-0.63835l0.54327-2.3723h-1.0684l0.19467-1.0186h2.3904l-0.75153 3.4543q-0.04075 0.16298-0.04075 0.27616 0 0.35766 0.63382 0.35766h1.2586l-0.20373 1.0186z"/><path d="m27.397 43.646q-0.12676 0-0.12676-0.11771l0.25805-1.3084q0.01811-0.12224 0.14487-0.12224h1.0549q0.12676 0 0.12676 0.11771l-0.25806 1.3084q-0.01811 0.12224-0.14487 0.12224zm0.52969 6.0258q-0.88282 0-1.2903-0.25806-0.40746-0.25805-0.40746-0.81944 0-0.25806 0.08602-0.63835l0.54327-2.3723h-1.0684l0.19467-1.0186h2.3904l-0.75153 3.4543q-0.04075 0.16298-0.04075 0.27616 0 0.35766 0.63382 0.35766h1.2586l-0.20373 1.0186z"/></g><g transform="scale(.94858 1.0542)" fill="#ef4444" stroke-width=".08363" aria-label="x"><path d="m10.239 46.947-1.168-2.3813h1.3627l0.67004 1.4351 1.2133-1.4351h1.5031l-2.1595 2.5036 1.2586 2.567h-1.3537l-0.76964-1.6117-1.3718 1.6117h-1.5031z"/></g><g transform="scale(.94858 1.0542)" fill="#1d4ed8" stroke-width=".2051" aria-label="xmls"><path d="m46.777 91.373-2.8645-5.8401h3.342l1.6432 3.5196 2.9756-3.5196h3.6862l-5.2961 6.1399 3.0866 6.2953h-3.3198l-1.8875-3.9526-3.3642 3.9526h-3.6862z"/><path d="m57.669 85.533h2.1318v1.2879q0.43301-0.755 1.0992-1.1658 0.67728-0.42191 1.4545-0.42191t1.2546 0.41081q0.47742 0.41081 0.56625 1.1325 0.34419-0.71058 1.0548-1.1214 0.71058-0.42191 1.5766-0.42191 1.0437 0 1.621 0.64397 0.58845 0.63286 0.58845 1.8653 0 0.3886-0.06662 0.92154-0.06662 0.52184-0.22206 1.3212l-1.5544 7.983h-2.6536l1.5433-7.983q0.08882-0.45522 0.14434-0.79941 0.05551-0.34419 0.05551-0.59956 0-0.92154-0.755-0.92154-0.54404 0-0.85492 0.49963-0.32198 0.51073-0.56625 1.8209l-1.5433 7.983h-2.6647l1.5655-7.983q0.04441-0.25537 0.08882-0.48853 0.04441-0.23316 0.05551-0.3886 0.04441-0.28868 0.04441-0.51073 0-0.93264-0.7661-0.93264-0.53294 0-0.84382 0.48853-0.29978 0.48853-0.55514 1.832l-1.5433 7.983h-2.6647z"/><path d="m76.977 98.079q-2.1651 0-3.1643-0.63286-0.99926-0.63286-0.99926-1.9985 0-0.57735 0.21096-1.5766l2.2539-10.681h-3.3975l0.47742-2.4981h6.6395l-2.7757 13.368q-0.03331 0.15544-0.06662 0.33309-0.02221 0.16654-0.02221 0.31088 0 0.87713 1.5544 0.87713h3.0866l-0.49963 2.4981z"/><path d="m88.457 98.29q-2.1873 0-4.4523-0.7772l0.56625-2.8423q1.9985 1.2768 4.0859 1.2768 1.2102 0 1.8986-0.43301 0.69948-0.43301 0.69948-1.1991 0-0.46632-0.34419-0.72169-0.44412-0.35529-1.8098-0.74389l-0.97705-0.26647q-2.6203-0.72169-2.6203-3.1976 0-1.8986 1.51-3.02 1.5211-1.1325 4.2413-1.1325 0.96595 0 1.9097 0.16654 0.95485 0.15544 1.9874 0.52184l-0.55514 2.8201q-1.732-1.188-3.6528-1.188-1.1214 0-1.7654 0.3997-0.64397 0.3886-0.64397 1.0326 0 0.49963 0.42191 0.81051 0.46632 0.32198 1.8209 0.71058l0.82161 0.23316q1.4101 0.3997 2.0651 1.188 0.66617 0.7772 0.66617 2.0318 0 2.0207-1.5544 3.1754-1.5544 1.1547-4.319 1.1547z"/></g><path d="m34.231 85.507 5.6109 1.9728-1.7569-5.5379z" fill="#999"/><path transform="matrix(.70488 -.70933 .70327 .71092 0 0)" d="m-33.241 48.927c0.43113 0 0.77821 0.34709 0.77821 0.77823v36.082c0 0.43114-0.34708 0.77823-0.77821 0.77823-0.43113 0-0.77821-0.34709-0.77821-0.77823v-36.082c0-0.43114 0.34708-0.77823 0.77821-0.77823z" fill="#999" stroke-linecap="round" stroke-linejoin="bevel" stroke-opacity=".84689" stroke-width=".62321"/><g transform="scale(.94858 1.0542)" fill="#94a3b8" stroke-width=".08363" aria-label="xdd"><path d="m38.852 46.947-1.168-2.3813h1.3627l0.67004 1.4351 1.2133-1.4351h1.5031l-2.1595 2.5036 1.2586 2.567h-1.3537l-0.76964-1.6117-1.3718 1.6117h-1.5031z"/><path d="m44.19 49.767q-0.65646 0-1.0458-0.50706-0.38482-0.51158-0.38482-1.3989 0-0.39387 0.08602-0.85566 0.08602-0.46631 0.26258-0.91904 0.17656-0.45273 0.4482-0.82396 0.27616-0.37576 0.65193-0.60213t0.86018-0.22636q0.52516 0 0.85566 0.28522 0.33049 0.28522 0.40293 0.79227l0.56591-2.9201h1.3265l-1.3718 7.0444h-1.1816v-0.75153q-0.60213 0.88282-1.4759 0.88282zm0.61118-1.0865q0.02716 0.0045 0.05433 0.0045 0.30785 0 0.58854-0.29427 0.28069-0.2988 0.45726-0.76511 0.17656-0.47084 0.17656-0.99147 0-0.23542-0.05433-0.49347-0.05433-0.25805-0.21278-0.43914-0.15846-0.18109-0.46178-0.18109-0.33502 0-0.57496 0.22636-0.23542 0.22184-0.38482 0.56138-0.1494 0.33955-0.22184 0.69267-0.06791 0.35313-0.06791 0.60665 0 0.52516 0.18109 0.80133 0.18562 0.27164 0.52064 0.27164z"/><path d="m49.772 49.767q-0.65645 0-1.0458-0.50706-0.38482-0.51158-0.38482-1.3989 0-0.39387 0.08602-0.85566 0.08602-0.46631 0.26258-0.91904 0.17656-0.45273 0.4482-0.82396 0.27616-0.37576 0.65193-0.60213 0.37576-0.22636 0.86018-0.22636 0.52516 0 0.85566 0.28522 0.33049 0.28522 0.40293 0.79227l0.56591-2.9201h1.3265l-1.3718 7.0444h-1.1816v-0.75153q-0.60213 0.88282-1.4759 0.88282zm0.61118-1.0865q0.02716 0.0045 0.05433 0.0045 0.30786 0 0.58855-0.29427 0.28069-0.2988 0.45726-0.76511 0.17656-0.47084 0.17656-0.99147 0-0.23542-0.05433-0.49347-0.05433-0.25805-0.21278-0.43914-0.15846-0.18109-0.46178-0.18109-0.33502 0-0.57496 0.22636-0.23542 0.22184-0.38482 0.56138-0.1494 0.33955-0.22184 0.69267-0.06791 0.35313-0.06791 0.60665 0 0.52516 0.18109 0.80133 0.18562 0.27164 0.52064 0.27164z"/></g><g transform="scale(.94858 1.0542)" fill="#ef4444" stroke-width=".08363" aria-label="m"><path d="m32.528 44.565h0.86924v0.52516q0.17656-0.30785 0.4482-0.47536 0.27616-0.17204 0.59307-0.17204t0.51158 0.16751 0.23089 0.46178q0.14035-0.28974 0.43009-0.45726 0.28975-0.17204 0.64287-0.17204 0.42556 0 0.66098 0.26258 0.23994 0.25806 0.23994 0.76058 0 0.15846-0.02716 0.37576-0.02716 0.21278-0.09055 0.53875l-0.63382 3.2551h-1.082l0.62929-3.2551q0.03622-0.18562 0.05885-0.32596 0.02264-0.14035 0.02264-0.24447 0-0.37576-0.30786-0.37576-0.22184 0-0.3486 0.20373-0.13129 0.20825-0.23089 0.74247l-0.62929 3.2551h-1.0865l0.63834-3.2551q0.01811-0.10413 0.03622-0.1992 0.01811-0.09507 0.02264-0.15846 0.01811-0.11771 0.01811-0.20826 0-0.38029-0.31238-0.38029-0.21731 0-0.34407 0.1992-0.12224 0.1992-0.22636 0.747l-0.62929 3.2551h-1.0865z"/></g><g transform="scale(.94858 1.0542)" fill="#94a3b8" stroke-width=".08363" aria-label="khd"><path d="m62.51 42.591h1.3265l-0.68814 3.5403 1.829-1.5664h1.6751l-2.2863 1.8924 1.417 3.1781h-1.408l-1.0051-2.3723-0.52516 0.43462-0.37124 1.9377h-1.3265z"/><path d="m68.087 42.591h1.3174l-0.52516 2.7345q0.21731-0.42104 0.5976-0.65193 0.38029-0.23089 0.86471-0.23089 0.56138 0 0.86924 0.31691 0.30786 0.31238 0.30786 0.8964 0 0.1494-0.01811 0.2988-0.0045 0.02716-0.01811 0.12676-0.0091 0.05885-0.02264 0.12676-0.0091 0.06791-0.02264 0.13129l-0.63835 3.2959h-1.3265l0.60213-3.0876q0.03169-0.10413 0.03622-0.22636 0.0091-0.12676 0.0091-0.23542 0-0.55686-0.498-0.55686-0.38029 0-0.6474 0.33049-0.26711 0.32596-0.38482 0.92809l-0.5478 2.8477h-1.3265z"/><path d="m73.76 49.767q-0.65646 0-1.0458-0.50706-0.38482-0.51158-0.38482-1.3989 0-0.39387 0.08602-0.85566 0.08602-0.46631 0.26258-0.91904 0.17656-0.45273 0.4482-0.82396 0.27616-0.37576 0.65193-0.60213t0.86018-0.22636q0.52516 0 0.85566 0.28522 0.33049 0.28522 0.40293 0.79227l0.56591-2.9201h1.3265l-1.3718 7.0444h-1.1816v-0.75153q-0.60213 0.88282-1.4759 0.88282zm0.61118-1.0865q0.02716 0.0045 0.05433 0.0045 0.30786 0 0.58855-0.29427 0.28069-0.2988 0.45726-0.76511 0.17656-0.47084 0.17656-0.99147 0-0.23542-0.05433-0.49347-0.05433-0.25805-0.21278-0.43914-0.15845-0.18109-0.46178-0.18109-0.33502 0-0.57496 0.22636-0.23542 0.22184-0.38482 0.56138-0.1494 0.33955-0.22184 0.69267-0.06791 0.35313-0.06791 0.60665 0 0.52516 0.18109 0.80133 0.18562 0.27164 0.52064 0.27164z"/></g><g transform="scale(.94858 1.0542)" fill="#ef4444" stroke-width=".08363" aria-label="l"><path d="m58.806 49.681q-0.88282 0-1.2903-0.25806t-0.40746-0.81491q0-0.23542 0.08602-0.64287l0.91904-4.3552h-1.3853l0.19467-1.0186h2.7073l-1.1318 5.4508q-0.01358 0.06338-0.02716 0.13582-0.0091 0.06791-0.0091 0.12676 0 0.35766 0.63382 0.35766h1.2586l-0.20373 1.0186z"/></g><g transform="scale(.94858 1.0542)" fill="#94a3b8" stroke-width=".08363" aria-label="ysjh"><path d="m80.297 50.546q0.46631 0 0.73342-0.02264t0.43009-0.12224q0.16298-0.0996 0.30333-0.33049 0.14034-0.22636 0.35765-0.63835l-0.98242-4.8668h1.3446l0.57496 3.1691 1.7339-3.1691h1.3989l-3.1963 5.6183q-0.30786 0.54327-0.56591 0.83755-0.25805 0.2988-0.55233 0.41651-0.28975 0.11771-0.6972 0.11771h-1.0865z"/><path d="m88.192 49.767q-0.89187 0-1.8154-0.31691l0.23089-1.159q0.81491 0.52064 1.666 0.52064 0.49347 0 0.77416-0.17656 0.28522-0.17656 0.28522-0.48895 0-0.19014-0.14034-0.29427-0.18109-0.14487-0.73795-0.30333l-0.3984-0.10866q-1.0684-0.29427-1.0684-1.3039 0-0.77416 0.61571-1.2314 0.62024-0.46178 1.7294-0.46178 0.39387 0 0.77869 0.06791 0.38935 0.06338 0.81038 0.21278l-0.22636 1.1499q-0.70626-0.48442-1.4895-0.48442-0.45725 0-0.71984 0.16298-0.26258 0.15846-0.26258 0.42104 0 0.20373 0.17204 0.33049 0.19015 0.13129 0.74247 0.28975l0.33502 0.09507q0.57496 0.16298 0.84207 0.48442 0.27164 0.31691 0.27164 0.82849 0 0.82396-0.63382 1.2948-0.63382 0.47084-1.7611 0.47084z"/><path d="m95.006 43.646q-0.12676 0-0.12676-0.11318 0-0.01811 0.0045-0.03622l0.249-1.2767q0.02264-0.12224 0.14487-0.12224h1.0549q0.12676 0 0.12676 0.11318 0 0.01811-0.0045 0.03622l-0.249 1.2767q-0.01811 0.12224-0.14487 0.12224zm-3.3547 6.8905h1.0458q0.45273 0 0.67909-0.24447 0.22636-0.23995 0.3486-0.85113l0.75153-3.8572h-1.3446l0.19467-1.0186h2.6711l-0.9462 4.8759q-0.0996 0.51158-0.23089 0.90546t-0.36218 0.66098q-0.23089 0.27164-0.62024 0.40746-0.38482 0.14035-1.0005 0.14035h-1.3899z"/><path d="m98.773 42.591h1.3174l-0.52516 2.7345q0.21731-0.42104 0.5976-0.65193 0.38029-0.23089 0.86471-0.23089 0.56138 0 0.86923 0.31691 0.30786 0.31238 0.30786 0.8964 0 0.1494-0.0181 0.2988-5e-3 0.02716-0.0181 0.12676-9e-3 0.05885-0.0226 0.12676-9e-3 0.06791-0.0226 0.13129l-0.63835 3.2959h-1.3265l0.60213-3.0876q0.0317-0.10413 0.0362-0.22636 9e-3 -0.12676 9e-3 -0.23542 0-0.55686-0.498-0.55686-0.38029 0-0.6474 0.33049-0.26711 0.32596-0.38482 0.92809l-0.5478 2.8477h-1.3265z"/></g><g transform="scale(.94858 1.0542)" fill="#94a3b8" stroke-width=".08363" aria-label="oii"><path d="m113.47 49.767q-0.9462 0-1.4759-0.56138-0.52516-0.56591-0.52516-1.6525 0-0.8964 0.3486-1.5981 0.3486-0.70626 0.9643-1.1137 0.62024-0.40746 1.4261-0.40746 1.0322 0 1.5393 0.58402 0.50706 0.57949 0.50706 1.58 0 0.92809-0.35313 1.6434-0.3486 0.71531-0.97337 1.1228-0.62476 0.40293-1.4578 0.40293zm0.14487-1.0684q0.35313 0 0.5976-0.21278 0.249-0.21278 0.40293-0.53875 0.15846-0.33049 0.23089-0.68362 0.0724-0.35313 0.0724-0.63382 0-0.56138-0.1992-0.83755-0.19467-0.28069-0.55686-0.28069-0.38029 0-0.68814 0.28522-0.30786 0.28069-0.48895 0.74247-0.18109 0.46178-0.18109 1.0051 0 0.57044 0.20826 0.86471 0.21278 0.28975 0.60212 0.28975z"/><path d="m119.44 43.646q-0.12676 0-0.12676-0.11771l0.25805-1.3084q0.0181-0.12224 0.14487-0.12224h1.0549q0.12676 0 0.12676 0.11771l-0.25805 1.3084q-0.0181 0.12224-0.14488 0.12224zm0.52969 6.0258q-0.88282 0-1.2903-0.25806-0.40746-0.25805-0.40746-0.81944 0-0.25806 0.086-0.63835l0.54327-2.3723h-1.0684l0.19467-1.0186h2.3904l-0.75153 3.4543q-0.0407 0.16298-0.0407 0.27616 0 0.35766 0.63382 0.35766h1.2586l-0.20373 1.0186z"/><path d="m125.02 43.646q-0.12676 0-0.12676-0.11771l0.25805-1.3084q0.0181-0.12224 0.14487-0.12224h1.0549q0.12676 0 0.12676 0.11771l-0.25805 1.3084q-0.0181 0.12224-0.14487 0.12224zm0.52969 6.0258q-0.88282 0-1.2903-0.25806-0.40746-0.25805-0.40746-0.81944 0-0.25806 0.086-0.63835l0.54327-2.3723h-1.0684l0.19467-1.0186h2.3904l-0.75153 3.4543q-0.0407 0.16298-0.0407 0.27616 0 0.35766 0.63382 0.35766h1.2586l-0.20373 1.0186z"/></g><g transform="scale(.94858 1.0542)" fill="#ef4444" stroke-width=".08363" aria-label="s"><path d="m108.11 49.767q-0.89187 0-1.8154-0.31691l0.2309-1.159q0.81491 0.52064 1.666 0.52064 0.49348 0 0.77417-0.17656 0.28522-0.17656 0.28522-0.48895 0-0.19014-0.14035-0.29427-0.18109-0.14487-0.73795-0.30333l-0.3984-0.10866q-1.0684-0.29427-1.0684-1.3039 0-0.77416 0.61571-1.2314 0.62023-0.46178 1.7294-0.46178 0.39387 0 0.77869 0.06791 0.38934 0.06338 0.81038 0.21278l-0.22636 1.1499q-0.70626-0.48442-1.4895-0.48442-0.45725 0-0.71984 0.16298-0.26258 0.15846-0.26258 0.42104 0 0.20373 0.17204 0.33049 0.19014 0.13129 0.74247 0.28975l0.33502 0.09507q0.57496 0.16298 0.84207 0.48442 0.27164 0.31691 0.27164 0.82849 0 0.82396-0.63382 1.2948-0.63382 0.47084-1.7611 0.47084z"/></g><path d="m51.151 83.278 4.8612 2.4237-0.91341-5.118z" fill="#999"/><path transform="matrix(.80175 -.59766 .61129 .7914 0 0)" d="m-8.1045 65.183h0.010091c0.38928 0 0.70267 0.31339 0.70267 0.70267v32.578c0 0.38928-0.31339 0.70267-0.70267 0.70267h-0.010091c-0.38928 0-0.70267-0.31339-0.70267-0.70267v-32.578c0-0.38928 0.31339-0.70267 0.70267-0.70267z" fill="#999" stroke-linecap="round" stroke-linejoin="bevel" stroke-opacity=".84689" stroke-width=".56472"/><path d="m65.684 80.063 3.7373 3.1788 0.68907-4.2983z" fill="#999"/><path transform="matrix(.96407 -.26566 .40178 .91574 0 0)" d="m30.361 69.678h0.20599c0.31466 0 0.56797 0.25332 0.56797 0.56797v26.333c0 0.31466-0.25331 0.56797-0.56797 0.56797h-0.20599c-0.31466 0-0.56797-0.25332-0.56797-0.56797v-26.333c0-0.31466 0.25332-0.56797 0.56797-0.56797z" fill="#999" stroke-linecap="round" stroke-linejoin="bevel" stroke-opacity=".84689" stroke-width=".49436"/><path d="m88.496 80.766 0.7208 4.8941 4.1867-3.2468z" fill="#999"/><path transform="matrix(.95656 .29152 -.37818 .92573 0 0)" d="m115.33 23.011h0.19164c0.34761 0 0.62745 0.27984 0.62745 0.62745v29.091c0 0.3476-0.27984 0.62745-0.62745 0.62745h-0.19164c-0.34761 0-0.62745-0.27984-0.62745-0.62745v-29.091c0-0.3476 0.27984-0.62745 0.62745-0.62745z" fill="#999" stroke-linecap="round" stroke-linejoin="bevel" stroke-opacity=".84689" stroke-width=".53947"/></svg>
