<svg width="480" height="480" version="1.1" viewBox="0 0 127 127" xmlns="http://www.w3.org/2000/svg"><text x="12.233409" y="42.307205" fill="#94a3b8" font-family="MiSans" font-size="29.334px" font-weight="500" stroke-width=".26458" style="font-variant-caps:normal;font-variant-east-asian:normal;font-variant-ligatures:normal;font-variant-numeric:normal;line-height:1.25" xml:space="preserve"><tspan x="12.233409" y="42.307205" fill="#94a3b8" font-family="MiSans" font-size="29.334px" font-weight="500" stroke-width=".26458" style="font-variant-caps:normal;font-variant-east-asian:normal;font-variant-ligatures:normal;font-variant-numeric:normal">显 微 镜</tspan></text><g transform="scale(.94858 1.0542)" fill="#94a3b8" stroke-width=".13328" aria-label="ud"><path d="m32.165 56.756q-0.88743 0-1.378-0.51226-0.49061-0.51226-0.49061-1.4574 0-0.43289 0.12265-1.0606l1.0317-5.2597h2.0995l-0.94515 4.935q-0.07215 0.37517-0.07215 0.68542 0 0.93794 0.79364 0.93794 0.59884 0 1.0173-0.52669 0.42568-0.52669 0.61327-1.4791l0.88022-4.5526h2.0995l-1.5656 8.0807h-1.8903v-1.1977q-0.29581 0.64934-0.91629 1.0317-0.62048 0.37518-1.3997 0.37518z"/><path d="m41.183 56.756q-1.0462 0-1.6666-0.80807-0.61326-0.81528-0.61326-2.2294 0-0.6277 0.13708-1.3636 0.13708-0.74313 0.41846-1.4646 0.28138-0.72149 0.71428-1.3131 0.44011-0.59884 1.0389-0.95958t1.3708-0.36074q0.83693 0 1.3636 0.45454 0.52669 0.45454 0.64212 1.2626l0.90186-4.6536h2.114l-2.1861 11.226h-1.8831v-1.1977q-0.95958 1.4069-2.3521 1.4069zm0.97401-1.7316q0.04329 0.0072 0.08658 0.0072 0.49061 0 0.93794-0.46897 0.44732-0.47618 0.7287-1.2193 0.28138-0.75035 0.28138-1.5801 0-0.37517-0.08658-0.78642t-0.3391-0.69984q-0.25252-0.2886-0.73592-0.2886-0.5339 0-0.91629 0.36074-0.37518 0.35353-0.61327 0.89465t-0.35353 1.1039q-0.10822 0.56276-0.10822 0.9668 0 0.83693 0.2886 1.277 0.29581 0.43289 0.82971 0.43289z"/></g><g transform="scale(.94858 1.0542)" fill="#ef4444" stroke-width=".13328" aria-label="xr"><path d="m15.52 52.261-1.8614-3.795h2.1717l1.0678 2.2871 1.9336-2.2871h2.3953l-3.4415 3.9898 2.0057 4.0908h-2.1573l-1.2265-2.5685-2.1861 2.5685h-2.3953z"/><path d="m23.745 48.466h1.9047l-0.04329 1.2554q0.44732-0.69263 1.1544-1.0678 0.70706-0.38239 1.5656-0.38239 0.91629 0 1.5801 0.41125l-0.38239 1.9841q-0.68542-0.60605-1.7388-0.60605-1.1832 0-1.8398 0.65656-0.64934 0.64934-0.93072 2.1067l-0.72149 3.7229h-2.1284z"/></g><g transform="scale(.94858 1.0542)" fill="#94a3b8" stroke-width=".13328" aria-label="kot"><path d="m62.924 45.625h2.114l-1.0967 5.642 2.9148-2.4964h2.6695l-3.6435 3.0158 2.2583 5.0649h-2.2438l-1.6017-3.7806-0.83693 0.69263-0.59162 3.088h-2.114z"/><path d="m73.025 57.06q-1.5079 0-2.3521-0.89465-0.83693-0.90186-0.83693-2.6334 0-1.4285 0.55555-2.5469 0.55555-1.1255 1.5368-1.7749 0.98844-0.64934 2.2727-0.64934 1.645 0 2.4531 0.93072 0.80807 0.92351 0.80807 2.518 0 1.4791-0.56276 2.619-0.55555 1.14-1.5512 1.7893-0.99566 0.64213-2.3232 0.64213zm0.23088-1.7027q0.56276 0 0.95237-0.3391 0.39682-0.3391 0.64212-0.85857 0.25252-0.52669 0.36796-1.0894 0.11544-0.56276 0.11544-1.0101 0-0.89465-0.31746-1.3348-0.31024-0.44732-0.88743-0.44732-0.60605 0-1.0967 0.45454-0.49061 0.44732-0.77921 1.1832-0.2886 0.73592-0.2886 1.6017 0 0.90908 0.33188 1.378 0.3391 0.46175 0.95958 0.46175z"/><path d="m83.198 56.887q-1.3853 0-2.049-0.41125-0.65656-0.41846-0.65656-1.2987 0-0.35353 0.12987-1.0245l0.7287-3.759h-2.0707l0.31024-1.6234h2.0707l0.44011-2.2943h2.114l-0.44732 2.2943h2.7633l-0.31024 1.6234h-2.7633l-0.75756 3.8816q-0.0505 0.27417-0.0505 0.39682 0 0.31024 0.23809 0.45454 0.23809 0.13708 0.76478 0.13708h1.6234l-0.31024 1.6234z"/></g><g transform="scale(.94858 1.0542)" fill="#ef4444" stroke-width=".13328" aria-label="w"><path d="m52.174 48.77h1.7532l-0.23809 6.1904 1.6378-4.0764h1.6594l0.15873 4.0764 2.0995-6.1904h1.8182l-3.0158 8.0807h-2.0851v-4.2568l-1.7965 4.2568h-1.9913z"/></g><g transform="scale(.94858 1.0542)" fill="#1d4ed8" stroke-width=".2051" aria-label="xrwj"><path d="m48.45 91.373-2.8645-5.8401h3.342l1.6432 3.5196 2.9756-3.5196h3.6862l-5.2961 6.1399 3.0866 6.2953h-3.3198l-1.8875-3.9526-3.3642 3.9526h-3.6862z"/><path d="m61.108 85.533h2.9312l-0.06662 1.9319q0.68838-1.0659 1.7765-1.6432 1.0881-0.58845 2.4093-0.58845 1.4101 0 2.4315 0.63286l-0.58845 3.0533q-1.0548-0.93264-2.6758-0.93264-1.8209 0-2.8312 1.0104-0.99926 0.99926-1.4323 3.242l-1.1103 5.7291h-3.2754z"/><path d="m72.022 85.533h2.698l-0.3664 9.5263 2.5204-6.2731h2.5537l0.24426 6.2731 3.2309-9.5263h2.7979l-4.641 12.435h-3.2087v-6.5507l-2.7646 6.5507h-3.0644z"/><path d="m93.15 83.279q-0.31088 0-0.31088-0.27757 0-0.04441 0.0111-0.08882l0.61066-3.131q0.05551-0.29978 0.35529-0.29978h2.587q0.31088 0 0.31088 0.27757 0 0.04441-0.0111 0.08882l-0.61066 3.131q-0.04441 0.29978-0.35529 0.29978zm-8.2272 16.899h2.5648q1.1103 0 1.6654-0.59956 0.55514-0.58845 0.85492-2.0873l1.8431-9.4597h-3.2976l0.47742-2.4981h6.5507l-2.3205 11.958q-0.24426 1.2546-0.56625 2.2206-0.32198 0.96595-0.88823 1.621-0.56625 0.66617-1.5211 0.99926-0.94374 0.34419-2.4537 0.34419h-3.4086z"/></g><g transform="scale(.94858 1.0542)" fill="#94a3b8" stroke-width=".13328" aria-label="yhr"><path d="m100.33 58.301q0.74313 0 1.1688-0.03607t0.68541-0.1948q0.25974-0.15873 0.4834-0.52669 0.22366-0.36074 0.56998-1.0173l-1.5656-7.756h2.1428l0.91629 5.0504 2.7633-5.0504h2.2294l-5.0937 8.9537q-0.49061 0.86579-0.90186 1.3348-0.41125 0.47618-0.88022 0.66377-0.46175 0.18759-1.1111 0.18759h-1.7316z"/><path d="m111.98 45.625h2.0995l-0.83693 4.3578q0.34632-0.67098 0.95237-1.0389 0.60605-0.36796 1.378-0.36796 0.89465 0 1.3853 0.50504 0.49062 0.49783 0.49062 1.4285 0 0.23809-0.0289 0.47618-7e-3 0.04329-0.0289 0.20202-0.0144 0.09379-0.0361 0.20202-0.0144 0.10822-0.0361 0.20923l-1.0173 5.2524h-2.114l0.95959-4.9206q0.0505-0.16594 0.0577-0.36074 0.0144-0.20202 0.0144-0.37517 0-0.88743-0.79363-0.88743-0.60606 0-1.0317 0.52669-0.42568 0.51947-0.61327 1.4791l-0.873 4.5382h-2.114z"/><path d="m120.74 48.77h1.9047l-0.0433 1.2554q0.44732-0.69263 1.1544-1.0678 0.70706-0.38239 1.5656-0.38239 0.9163 0 1.5801 0.41125l-0.38239 1.9841q-0.68542-0.60605-1.7388-0.60605-1.1832 0-1.8398 0.65656-0.64934 0.64934-0.93072 2.1067l-0.72149 3.7229h-2.1284z"/></g><g transform="scale(.94858 1.0542)" fill="#ef4444" stroke-width=".13328" aria-label="j"><path d="m97.173 47.306q-0.20202 0-0.20202-0.18037 0-0.02886 0.0072-0.05772l0.39682-2.0346q0.03607-0.1948 0.23088-0.1948h1.6811q0.20202 0 0.20202 0.18037 0 0.02886-0.0072 0.05772l-0.39682 2.0346q-0.02886 0.1948-0.23088 0.1948zm-5.3462 10.981h1.6666q0.72149 0 1.0822-0.3896 0.36074-0.38239 0.55555-1.3564l1.1977-6.1471h-2.1428l0.31024-1.6234h4.2568l-1.5079 7.7704q-0.15873 0.81528-0.36796 1.443-0.20923 0.6277-0.57719 1.0534-0.36796 0.43289-0.98844 0.64934-0.61327 0.22366-1.5945 0.22366h-2.215z"/></g><path d="m45.645 85.375 5.7668 1.4551-2.2525-5.3555z" fill="#999"/><path transform="rotate(-50.146)" d="m-33.739 59.841c0.36608 0 0.66079 0.29471 0.66079 0.66079v30.637c0 0.36608-0.29471 0.66079-0.66079 0.66079s-0.66079-0.29471-0.66079-0.66079v-30.637c0-0.36608 0.29471-0.66079 0.66079-0.66079z" fill="#999" stroke-linecap="round" stroke-linejoin="bevel" stroke-opacity=".84689" stroke-width=".52917"/><path d="m67.124 83.398 5.2403 2.8131-0.88338-5.7424z" fill="#999"/><path transform="rotate(-36.079)" d="m7.9368 82.598c0.3195 0 0.57672 0.25722 0.57672 0.57672v26.739c0 0.3195-0.25722 0.57672-0.57672 0.57672s-0.57672-0.25722-0.57672-0.57672v-26.739c0-0.3195 0.25722-0.57672 0.57672-0.57672z" fill="#999" stroke-linecap="round" stroke-linejoin="bevel" stroke-opacity=".84689" stroke-width=".46184"/><path d="m84.896 77.205 1.5817 5.7334 3.5452-4.6029z" fill="#999"/><path transform="matrix(.97311 .23033 -.19608 .98059 0 0)" d="m101.09 41.483h0.35391c0.21817 0 0.39381 0.17564 0.39381 0.39382v16.189c0 0.21817-0.17564 0.39382-0.39381 0.39382h-0.35391c-0.21817 0-0.39381-0.17564-0.39381-0.39382v-16.189c0-0.21817 0.17564-0.39382 0.39381-0.39382z" fill="#999" stroke-linecap="round" stroke-linejoin="bevel" stroke-opacity=".84689" stroke-width=".47418"/></svg>
