<svg xmlns="http://www.w3.org/2000/svg" xml:space="preserve" width="900" height="260" viewBox="0 -6 280 88"><path fill="#343633" d="M172.51 1.779c2.193 2.878 6.784 5.56 2.646 8.996v.264c.684-.108 3.772.036 2.742 1.453-.648.892-3.044 1.277-4.065 1.631-3.765 1.308-7.839 3.305-11.906 3.266 2.31 8.119 9.689 2.303 14.552 1.588-2.427 2.42-4.482 4.21-4.002 7.937.143 1.115.321 2.736 1.646 3.05 1.667.394 3.517-1.448 5.002-1.991-7.188 10.203-23.15 13.267-34.66 14.817.848 4.083 5.745 3.696 8.731 3.012 9.092-2.082 18.645-4.36 27.517-7.246-.923 2.714-4.048 5.37-5.729 7.785-2.42 3.475-4.503 9.338-4.359 13.646.08 2.354.969 5.698 2.707 7.33 2.83 2.655 5.571.733 5.264-2.832 2.405 1.17 4.015 5.517 6.625 5.81 14.6 1.632 12.952-29.434-2.391-22.38-1.947.895-3.501 2.11-5.027 3.605-.329-6.765 9.587-14.235 15.875-14.542 3.945-.192 10.58 1.338 13.939-1.336 2.438-1.941-1.808-3.421-3.091-3.728-4.144-.991-9.113-.298-13.23.587-3.595.772-7.23 1.412-10.847 2.086 3.125-2.456 12.298-8.662 4.762-11.518-.872-.33-1.725-.381-2.646-.389 1.8-3.34 8.221-5.353 8.83-9.26.628-4.028-5.312-1.749-6.818-3.118-.989-.898-.819-3.798-1.482-5.08-1.888-3.647-6.996-4.658-10.584-3.444m-150.81.53c.472 1.093 1.501 1.761 1.91 2.91 1.163 3.274.73 7.924.736 11.377.002 1.192.7 4.67-.794 4.762.93 9.356-12.483 9.71-19.05 12.171 2.432 3.422 9.463 5.69 13.494 4.33 1.438-.486 4.16-3.9 5.737-3.205 1.012.446.613 2.766.613 3.638 0 3.399-1.091 8.388-5.027 9.525-1.25 4.455-6.867 5.62-10.04 7.832-1.146.8-1.405 2.587-.724 3.782.781 1.37 2.777 1.685 3.832 2.942 1.109 1.32 2.727 2.239 4.021 3.435 1.149 1.208 3.032 3.447 3.175 3.97-.35.024-1.588-1.06-1.588-1.06 2.204 3.838 10.912 14.59 12.136 4.763.37-2.963-.574-6.331-.968-9.26-.582-4.334-.335-8.885-.323-13.229.006-2.453-.44-5.265.145-7.673.5-2.061 2.633-3.987 3.98-5.556 2.939-3.423 5.87-6.933 5.933-11.642-.933.617-3.52 1.376-.794-.794 0 0 .234-.596-.277-.88s-6.92 2.153-9.525-.793.092-8.974.287-13.408c.064-1.446 1.116-3.118.852-4.498-.64-3.346-5.12-4.464-7.741-3.44m238.43 5.853c-.908.456-.566 1.282-.074 1.895 1.595 1.993 3.146 3.665 3.617 6.275.24 1.338-.318 2.963.06 4.218.228.755.937 1.017 1.65.77 1.01-.351 1.77-1.273 2.412-2.079 3.469-4.365 1.392-7.56-3.207-9.73-1.1-.52-3.199-1.981-4.458-1.35m-213.56 2.085c2.705 4.566-4.118 9.28-6.226 12.966-1.768 3.09.143 6.116.59 9.26.672 4.716-3.97 13.2 1.713 16.444 2.355 1.344 4.29-4.039 4.614-5.596.216-1.042-.29-2.19.16-3.175 1.099-2.394 4.86-3.98 7.087-5.092 6.51-3.256 12.955-3.342 19.844-4.913 1.44-.329 2.564-1.275 3.968-1.637-1.222-2.33-4.898-2.03-7.143-2.127-5.89-.256-11.927 2.964-17.198 5.384-1.753.805-4.686 3.291-6.6 3.247-1.105-.025-1.378-1.71-1.575-2.535-.584-2.44-4.646-6.64-3.545-8.996 1.58-3.382 5.576-5.99 8.81-7.567 1.17-.571 4.53-1.295 4.793-2.776.404-2.266-5.402-4.66-7.147-4.331-.807.151-1.44 1.046-2.145 1.445m52.652 5.556c3.37 5.082 7.63 3.728 12.7 3.969-1.044 5.856-7.218 9.576-8.266 15.61-.543 3.13-.006 6.575 3.768 7.086 3.54.48 5.109-5.527 8.203-6.855.815-.35 3.301-1.502 3.933-.401.812 1.413-1.712 3.994-2.502 4.932-2.456 2.915-5.669 5.15-8.84 7.231-1.478.97-3.723 1.747-4.598 3.377-.925 1.72-1.445 6.393 1.424 6.485 1.436.046 2.626-1.1 3.703-1.882 1.638-1.19 3.44-2.082 5.292-2.884 2.848-1.232 5.623-2.61 8.731-3.066-.476 2.631-3.21 4.96-5.295 6.462-5.586 4.024-12.92 5.231-19.575 6.348-2.618.439-6.198 1.629-8.731.684 2.112 4.593 8.246 4.665 12.435 3.67 3.937-.936 8.065-1.035 11.906-2.02 5.356-1.372 10.405-4.123 16.14-3.718 4.136.292 7.87 1.59 11.906 2.022 1.14.122 3.402.343 4.337-.48 2.172-1.912-2.643-4.349-3.808-4.788-5.087-1.918-11.098-1.264-16.404-1.036 1.32-2.469 4.467-4.052 5.33-6.615 1.617-4.801-7.401-4.573-10.093-4.233 2.266-3.16 11.582-11.53 4.233-15.103a8.426 8.426 0 0 0-2.38-.732c-2.342-.359-4.786-.142-7.145-.304 3.159-3.703 5.369-8.112 8.742-11.642 1.39-1.455 3.529-3 3.06-5.292-.741-3.624-4.779-3.119-7.568-3.178-7.424-.158-13.893 3.45-20.638 6.353m75.406-4.762.264.264-.264-.264m46.037 9.26c1.25 2.459 4.189 6.958 7.408 6.728 2.205-.157 6.392-2.588 8.429-1.428 1.874 1.068 2.197 6.573-.492 6.808-3.74.326-4.946-1.783-7.244-3.99-.548-.527-1.861-1.546-2.603-.803-.651.652-.1 1.985.057 2.74.476 2.283 1.483 5.038 1.164 7.406-.189 1.404-1.87 1.911-3.015 2.32-3.169 1.13-6.7 1.648-10.054 1.65 1.553 2.784 4.24 4.046 7.408 3.591 1.226-.176 4.14-1.59 5.131-.551.894.937-.026 3.334-.392 4.369-1.237 3.494-3.09 7.586-2.862 11.377.082 1.363 1.028 5.285 3.122 4.22 1.347-.684 1.82-3.157 2.219-4.485 1.377-4.595 2.478-9.549 3.213-14.288.395-2.545 1.4-6.292 4.9-5.746 2.245.35 1.21 5.833 1.154 7.333-.212 5.62-.834 10.49-.156 16.14.247 2.059.045 4.994 2.457 5.888 2.667.988 3.13-4.748 3.161-6.417.037-2.1-1.09-4.029-1.283-6.085-.341-3.679-.026-7.414-.026-11.112 0-1.776-.54-4.443.177-6.082 1.249-2.857 8.287-1.717 8.522-4.766.22-2.823-6.829-1.358-8.011-2.54-1.011-1.014-.016-3.319-.215-4.604-.209-1.332-1.254-2.255-1.796-3.44 2.132-.366 5.098-1.245 6.553-2.921 2.384-2.748-.965-5.301-3.643-5.52-8.409-.69-14.926 4.208-23.283 4.208m-184.68 8.202c-1.248 2.395-4.762 7.949-7.408 8.731-1.253-5.261 2.417-7.983 7.408-8.73m195.53 4.233c1.232-.219 6.14-.388 5.805 1.828-.202 1.34-3.807 2.405-4.815 1.603-.733-.583-.86-2.55-.99-3.431m31.485.529c.379 4.786-.484 9.85.077 14.552.481 4.055 2.598 9.18 2.021 13.229-.645 4.526-3.188 8.735-5.273 12.7 4.924 1.794 10.898-4.414 10.56-9.26-.222-3.203-3.736-5.087-3.887-7.938-.13-2.457 3.25-3.94 3.371-6.615.201-4.368-2.119-5.747-3.96-9.26-1.23-2.341-1.421-4.982-2.38-7.409h-.528M54.242 39.35c2.881 3.995 5.736 4.334 3.175 9.79 0 0 1.05-.962 1.552-.83.962.75-.31 2.008-.758 2.682 1.483-1.047 4.532-2.242 5.308-3.974 2.112-4.72-5.985-7.525-9.277-7.668m-29.633 9.525c-.266 3.914.349 7.992.519 11.906.095 2.191-.402 3.874-2.9 3.44.542.613 1.361.804 1.529.88.165.077.533.373.323.442-.21.07-2.948-1.168-4.18-2.132-1.834-1.435-5.212-3.457-4.578-5.277.48-1.373 1.963-2.244 2.95-3.223 2.062-2.045 3.561-4.861 6.337-6.036m165.1 7.408-10.054-.794c2.797-4.628 9.913-6.032 10.054.794M45.249 57.87c3.137 5.998 14.223.573 19.05 1.322-3.813 6.545-7.977 9.208-15.346 9.79.64 1.592 3.993 1.415 5.556 1.7 1.211.22 2.29 1.09 3.44 1.248 1.043.143 2.086-.78 3.175-.816 2.347-.078 4.515.685 6.879.27.94-.166 4.524-.583 4.111-2.121-.303-1.13-3.402-2.265-4.376-2.927 1.743-1.569 3.738-2.912 5.567-4.39 5.104-4.126.595-7.804-4.244-8.495-8.238-1.177-15.897 4.722-23.812 4.419m-7.408.793c.953 3.392.247 7.766 2.148 10.847 2.711 4.394 6.731 1.883 7.28-2.38.365-2.838-2.706-5.102-2.284-7.673-2.845 1.563-4.33-1.56-7.144-.794m141.29-.264c1.36.245 2.496 1.008 3.704 1.656.838.45 5.155 2.408 5.323 3.188.575 2.664-4.395 1.933-5.587 1.566-3.517-1.084-3.672-3.124-3.44-6.41"/></svg>