<svg xmlns="http://www.w3.org/2000/svg" width="48" height="48" viewBox="0 0 12.7 12.7"><path fill="#fdbd00" d="M3.046 12.691c-.652-.024-1.107-.12-1.51-.322C.726 11.966.207 11.235.064 10.3.007 9.92.007 9.905.007 6.35s0-3.57.058-3.948C.208 1.466.727.734 1.535.33c.342-.17.683-.257 1.202-.306C3.024 0 9.676 0 9.963.025c.85.08 1.419.322 1.906.813.49.492.726 1.051.806 1.9.026.286.026 6.938 0 7.225-.049.519-.136.86-.306 1.202-.398.797-1.103 1.305-2.033 1.466-.352.06-.31.06-3.832.062-1.84.001-3.397 0-3.459-.002z"/><path fill="#382700" d="M7.163 11c-.388-.05-.8-.19-1.236-.419a4.053 4.053 0 0 1-1.007-.756C4.215 9.12 3.712 8.28 2.63 5.998a23.316 23.316 0 0 0-.677-1.343c-.224-.375-.364-.535-.82-.945-.252-.226-.294-.283-.294-.396 0-.106.042-.17.178-.267.29-.208.658-.447.856-.556.589-.327 1.149-.465 1.678-.415.802.076 1.52.445 2.24 1.148.626.612 1.168 1.457 1.709 2.667.028.062.057.114.065.114a.928.928 0 0 0 .099-.195c.124-.291 1.817-3.593 1.858-3.625.067-.053.082-.046.319.153.437.369.783.79.906 1.106.054.137.154.486.187.654.122.615.026 1.124-.308 1.631-.365.555-.799.854-1.433.986a2.62 2.62 0 0 1-.695.058 1.446 1.446 0 0 1-.442-.055c-.219-.056-.195-.052-.195-.036 0 .019.323.684.437.9.316.596.64 1.121.869 1.406.147.184.425.487.447.487.024 0 .278-.255.403-.405.221-.265.543-.728.932-1.34.505-.795.836-1.265.873-1.242.036.022-.273.932-.46 1.35-.343.771-.67 1.271-1.194 1.827-.095.101-.172.19-.172.198 0 .043.324.27.577.402.284.15.514.237 1.145.433a.951.951 0 0 1 .184.069c0 .02-.703.012-.857-.01-.487-.072-.958-.24-1.305-.469a1.13 1.13 0 0 0-.148-.088.378.378 0 0 0-.084.053c-.514.379-1.107.645-1.634.733-.178.03-.536.037-.711.014z"/></svg>