<svg width="480" height="480" version="1.1" viewBox="0 0 127 127" xmlns="http://www.w3.org/2000/svg" xmlns:xlink="http://www.w3.org/1999/xlink">
 <g transform="matrix(.67509 0 0 .67509 17.927 11.575)" fill="#475569" stroke-width=".8652" aria-label="编">
  <path d="m56.24 27.185c-0.76738 0-1.1508 0.15982-1.1508 0.47956 0 0.31974 0.19147 0.99118 0.57516 2.0143 0.44764 1.0232 0.67179 2.9737 0.67179 5.8513v2.0143c0 14.836-0.99107 27.146-2.9735 36.93l-1.727 6.9066c-0.63948 2.1103-1.2149 3.9964-1.7265 5.6591-0.70343 1.9824-1.3427 3.5811-1.9182 4.7961-1.0232 2.2382-1.5348 3.6771-1.5348 4.3165 0 0.63948 0.19199 0.95963 0.57568 0.95963 0.70343 0 1.5663-0.83177 2.5895-2.4944 2.2382-3.645 4.061-7.162 5.4679-10.551 2.9416-6.5867 4.8921-14.74 5.8513-24.46 0.02121 0.16969 0.03337 0.33033 0.04754 0.49299l0.6997-5.3609c-0.05649-0.0075-0.11812-0.01829-0.17208-0.02429 0.12789-1.0871 0.19224-2.046 0.19224-2.8773 0.06395-0.89527 0.12777-1.8869 0.19172-2.974l35.779-1.4387c0.07957-0.0066 0.1521-0.0149 0.22893-0.02222l-4.9677-4.5852-0.62684-0.35243-0.0057 0.0677-30.216 1.247 0.26458-8.4641v-5.5811l0.14108-0.54002c-3.4079-1.3308-5.5106-2.0092-6.257-2.0092zm33.477 33.005-6.0038 0.21446 1.016-0.03049-0.09612 11.607-6.2348 0.19172-0.0956-11.574-5.1806 0.185v11.581l-6.7143 0.28784v-2.6308l-0.14418 0.66094v6.4565l0.14418 0.32453v-0.01499l6.7143-0.28784v7.674c0 3.1974-0.06382 5.2439-0.19172 6.1392-0.1279 0.89527-0.19172 1.6305-0.19172 2.2061 0 0.63948 0.54327 1.2793 1.6304 1.9187 1.0871 0.63948 1.9189 0.95912 2.4944 0.95912 1.1511 0 1.7265-0.7996 1.7265-2.3983l-0.09612-16.69 6.1392-0.19172-0.09612 7.7696c0 2.8777-0.19147 5.4679-0.57516 7.7701 0 0.83132 0.57544 1.5666 1.7265 2.2061 1.1511 0.63948 1.9502 0.95911 2.3978 0.95911 0.95922 0 1.4392-0.73526 1.4392-2.2061l0.0956-16.595 8.416-0.1912v-4.9578l-0.04858-0.12351-8.3674 0.38086zm-38.471 15.508c-0.10791 0-0.23387 0.0078-0.37775 0.02377-0.51158 0.06395-1.7901 0.57557-3.8365 1.5348-2.0463 0.95922-5.5639 2.5263-10.552 4.7005l-9.1126 3.7409c-1.6626 0.57554-2.9417 0.89516-3.837 0.95912l-0.95911 0.09612c-0.57553 0.06395-0.863 0.22376-0.863 0.47956 0.06395 0.51158 0.38358 1.2468 0.95912 2.2061s1.247 1.8226 2.0143 2.59 1.3428 1.1192 1.7265 1.0552c1.5348-0.1279 6.171-2.6538 13.909-7.5778 7.7377-4.988 11.543-8.1858 11.415-9.5927 0-0.14388-0.16202-0.21549-0.48576-0.21549z"/>
  <g fill="#ef4444">
   <path d="m41.469 63.156c2.8777-0.51158 5.0519-0.92725 6.5227-1.247 1.4708-0.38369 2.5899-0.54356 3.3573-0.47961 0.83133 0.06395 1.215 0.35171 1.1511 0.8633-0.06395 0.89527-1.9824 2.2062-5.7553 3.9328-3.7729 1.6627-7.4819 3.0375-11.127 4.1247-3.645 1.0871-5.7873 1.5987-6.4268 1.5348-0.57553-0.06395-1.0232-0.28776-1.3429-0.67146-1.0232-1.4708-1.6946-2.7178-2.0144-3.741-0.25579-1.0871-0.38369-1.6946-0.38369-1.8225 0.06395-0.57553 0.35171-0.83133 0.8633-0.76738l1.247 0.09592c1.4069 0.1279 2.8137 0.15987 4.2206 0.09592 2.8137-4.2845 5.2118-8.1534 7.1942-11.607-4.6043-3.3893-9.2085-6.107-13.813-8.1534-1.0232-0.51158-1.5987-1.0232-1.7266-1.5348s0-1.247 0.38369-2.2062c0.44764-1.0232 0.95922-1.5987 1.5348-1.7266 0.63948-0.1279 1.5348 0.03197 2.6858 0.47961 0.19184 0.1279 0.41566 0.22382 0.67146 0.28777 5.1798-7.8656 8.3133-13.269 9.4004-16.211 1.0871-2.9416 1.6307-5.1159 1.6307-6.5227v-0.95922c0-0.70343 0.25579-1.0551 0.76738-1.0551 0.31974 0 0.89527 0.25579 1.7266 0.76738 2.3661 1.4708 3.5491 2.8777 3.5491 4.2206-0.38369 1.5987-1.5667 4.2526-3.5491 7.9615-1.8545 3.4532-4.8281 8.2493-8.9208 14.388l2.2062 1.247c2.5579 1.5348 4.7002 2.8777 6.4268 4.0287l0.8633-1.4388c2.7498-4.8601 4.3165-8.2813 4.7002-10.264 0.1279-0.57553 0.22382-1.3429 0.28777-2.3021 0.06395-0.95922 0.25579-1.4388 0.57553-1.4388 0.38369 0 0.95922 0.25579 1.7266 0.76738 2.3021 1.4069 3.4852 2.8137 3.5491 4.2206 0 0.44764-0.09592 0.89527-0.28777 1.3429-3.709 7.0343-8.633 15.156-14.772 24.364l2.8777-0.57553z"/>
   <path d="m70.725 14.14c-0.44764 0-0.99143 0.38346-1.6309 1.1508-0.63948 0.70343-0.95912 1.2472-0.95912 1.6309 0 0.38369 0.51162 0.89531 1.5348 1.5348 3.5171 2.3021 6.8427 4.9235 9.9761 7.8652 0.57553 0.57553 1.1188 0.86351 1.6304 0.86351 0.51158 0 1.183-0.41563 2.0143-1.247 0.83132-0.83133 1.247-1.5988 1.247-2.3022 0-0.76738-1.4067-2.1424-4.2204-4.1248-2.7498-1.9824-4.9239-3.3569-6.5226-4.1243-1.5348-0.83132-2.558-1.247-3.0696-1.247zm-14.484 13.045c-0.76738 0-1.1508 0.15982-1.1508 0.47956 0 0.31974 0.19147 0.99118 0.57516 2.0143 0.22986 0.5254 0.39977 1.2997 0.5116 2.3141l6.1934 2.8903 0.0098-0.31213 30.695-1.5348-0.7674 9.4961-0.6842 0.02842 0.46716 0.0863 1.34 4.9485 4.2483-0.17105c0.76738-0.06395 1.4072-0.15994 1.9187-0.28784 0.51158-0.1279 0.76739-0.44753 0.76739-0.95912 0-0.51158-0.86342-1.7585-2.59-3.7409l1.247-9.3043c0.44764-0.76738 0.67128-1.375 0.67128-1.8226 0-0.51158-0.38346-1.2152-1.1508-2.1105-0.70343-0.95922-1.8865-1.4387-3.5491-1.4387h-0.47956l-31.751 1.5348c-3.5811-1.4069-5.7552-2.1105-6.5226-2.1105z"/>
   <path d="m98.83 54.714-32.134 1.4392c-2.2856-0.82536-4.0027-1.3036-5.1537-1.4356l-0.84284 0.16226-0.29714 1.9115 0.52452 2.9466c0.0044-0.04431 0.0096-0.0874 0.01395-0.13177 0.06395 0.51158 0.0956 0.99104 0.0956 1.4387v1.5348l-0.28784 26.954c0 1.5987-0.19147 3.7407-0.57516 6.4265 0 1.6626 1.1509 2.8141 3.453 3.4535 0.83132 0.25579 1.247 0.51109 1.247 0.76688 1.0232-0.44763 1.5348-1.2145 1.5348-2.3017v-20.432l0.06098-0.0026-0.03462-4.7945-0.02635 1e-3v-11.702l6.7143-0.19224v0.08992l5.1201-0.36018 4.8095-0.06305 1.6774-0.05013v0.02687l5.0669-0.25321s0.18577 0.02076 0.21652 0.02429l8.1452-0.2775-0.0956 11.51-0.02791 1e-3 -0.04031 5.0844 0.06821-0.0016-0.09612 17.746c-1.4708-0.83132-2.8137-1.7264-4.0287-2.6856-1.8545-1.0871-2.7817-1.1831-2.7817-0.28784 0 0.63948 0.70361 1.9502 2.1105 3.9326 1.4069 2.0463 2.5899 3.5174 3.5491 4.4126 0.95922 0.89526 1.7905 1.3426 2.4939 1.3426 0.70343 0 1.5669-0.38346 2.59-1.1508 1.0232-0.70343 1.5348-2.0141 1.5348-3.9326l-0.0961-2.7817 0.38343-32.422 0.48008-2.4939c0-0.25579-0.32015-0.89558-0.95963-1.9187-0.63949-1.0232-1.7904-1.5348-3.453-1.5348z"/>
  </g>
 </g>
 <g fill="#f87171" stroke-width=".32962" aria-label="ㄥㄥ">
  <path d="m6.5881 25.375q2.1761-2.9167 3.5933-6.1077l1.0972 0.45716q-1.4355 3.0904-3.0264 5.2117h5.3214v1.0881h-6.7203z"/>
  <path d="m15.731 25.375q2.1761-2.9167 3.5933-6.1077l1.0972 0.45716q-1.4355 3.0904-3.0264 5.2117h5.3214v1.0881h-6.7203z"/>
 </g>
 <g fill="#1d4ed8" stroke-width=".17388" aria-label="x">
  <path d="m12.798 30.667-1.3332-2.7182h1.5555l0.76481 1.6381 1.3849-1.6381h1.7157l-2.465 2.8577 1.4366 2.93h-1.5451l-0.8785-1.8397-1.5658 1.8397h-1.7157z"/>
 </g>
 <g transform="translate(0 -4.2333)">
  <g id="a">
   <path d="m25.095 28.681 3.703 4.677 1.9406-2.7027z" fill="#999"/>
   <path d="m29.13 31.991s5.2766 3.0523 8.9296 7.8098l0.67963-0.76459c-1.6493-2.9546-9.0167-7.763-9.0167-7.763z" fill="#999"/>
  </g>
 </g>
 <use transform="rotate(120.1 64.676 48.703)" xlink:href="#a"/>
 <g fill="#f87171" stroke-width=".32962" aria-label="丶ㄥ">
  <path d="m101.4 15.178q0.53945 0.52117 1.4172 1.4721 0.8869 0.9509 1.3989 1.5452l-0.93262 0.92347q-0.52117-0.65832-1.3532-1.6092-0.83204-0.9509-1.3532-1.4812z"/>
  <path d="m107.99 19.768q2.1761-2.9167 3.5933-6.1077l1.0972 0.45716q-1.4355 3.0904-3.0264 5.2117h5.3214v1.088h-6.7203z"/>
 </g>
 <g fill="#1d4ed8" stroke-width=".17388" aria-label="l">
  <path d="m108.05 30.545q-1.0077 0-1.4728-0.29456-0.46509-0.29455-0.46509-0.93017 0-0.26872 0.0982-0.7338l1.049-4.9713h-1.5813l0.22221-1.1627h3.0902l-1.2919 6.2218q-0.0155 0.07235-0.031 0.15503-0.0103 0.07751-0.0103 0.14469 0 0.40824 0.72347 0.40824h1.4366l-0.23254 1.1627z"/>
 </g>
 <g fill="#f87171" stroke-width=".32962" aria-label="丨ㄥ">
  <path d="m107.08 76.019h1.1338v8.3387h-1.1338z"/>
  <path d="m113.28 82.739q2.1761-2.9167 3.5933-6.1077l1.0972 0.45716q-1.4355 3.0904-3.0264 5.2117h5.3214v1.0881h-6.7203z"/>
 </g>
 <g fill="#1d4ed8" stroke-width=".17388" aria-label="o">
  <path d="m111.89 91.799q-1.08 0-1.6846-0.64079-0.59945-0.64595-0.59945-1.8862 0-1.0232 0.39791-1.8242 0.39791-0.80615 1.1007-1.2712 0.70796-0.46509 1.6278-0.46509 1.1782 0 1.757 0.66662 0.57878 0.66146 0.57878 1.8035 0 1.0594-0.40308 1.8758-0.39791 0.81648-1.111 1.2816-0.71313 0.45992-1.664 0.45992zm0.16536-1.2196q0.40307 0 0.68213-0.24288 0.28422-0.24288 0.45991-0.61495 0.18087-0.37724 0.26355-0.78031 0.0827-0.40307 0.0827-0.72347 0-0.64079-0.22738-0.95601-0.22221-0.32039-0.63562-0.32039-0.43408 0-0.78548 0.32556-0.3514 0.32039-0.5581 0.84749-0.20671 0.5271-0.20671 1.1472 0 0.65112 0.23771 0.98702 0.24288 0.33073 0.6873 0.33073z"/>
 </g>
 <g transform="scale(.94858 1.0542)" fill="#1e3a8a" stroke-width=".19611" aria-label="bxlo">
  <path d="m50.629 104.46q-1.2315 0-1.9959-0.6476-0.75376-0.65821-0.93424-1.8579l-0.74315 2.1976h-2.8027l3.2168-16.519h3.1106l-1.2633 6.4123q1.3589-2.0702 3.4503-2.0702 1.5712 0 2.463 1.1784t0.89177 3.2911q0 0.95547-0.20171 2.049t-0.61575 2.1551q-0.41404 1.051-1.051 1.9109-0.63698 0.85993-1.5181 1.3801-0.88116 0.5202-2.0065 0.5202zm-0.60513-2.5267q0.77499 0 1.3164-0.5202 0.55205-0.53082 0.89177-1.3164 0.33972-0.79623 0.49897-1.6243t0.15924-1.4438q0-1.2315-0.42465-1.8685-0.41404-0.63698-1.1678-0.63698-0.81746 0-1.5181 0.67945-0.69006 0.67945-1.1041 1.7729t-0.41404 2.325q0 1.274 0.46712 1.9534t1.2952 0.67945z"/>
  <path d="m61.373 97.848-2.739-5.5842h3.1955l1.5712 3.3654 2.8452-3.3654h3.5246l-5.064 5.8708 2.9513 6.0195h-3.1743l-1.8048-3.7794-3.2168 3.7794h-3.5246z"/>
  <path d="m77.159 104.26q-2.0702 0-3.0257-0.60513-0.95547-0.60513-0.95547-1.911 0-0.55205 0.20171-1.5075l2.1551-10.213h-3.2486l0.4565-2.3887h6.3486l-2.6541 12.782q-0.03185 0.14863-0.0637 0.31849-0.02123 0.15924-0.02123 0.29726 0 0.83869 1.4863 0.83869h2.9513l-0.47774 2.3887z"/>
  <path d="m88.551 104.46q-2.2188 0-3.4609-1.3164-1.2315-1.327-1.2315-3.875 0-2.102 0.81746-3.7476 0.81746-1.6562 2.2613-2.6116 1.4544-0.95547 3.3442-0.95547 2.4205 0 3.6096 1.3695 1.189 1.3589 1.189 3.7051 0 2.1764-0.82808 3.8537-0.81746 1.6774-2.2825 2.6328-1.4651 0.94486-3.4185 0.94486zm0.33972-2.5055q0.82808 0 1.4014-0.49897 0.5839-0.49897 0.94486-1.2633 0.37157-0.775 0.54144-1.6031 0.16986-0.82808 0.16986-1.4863 0-1.3164-0.46712-1.964-0.4565-0.65821-1.3058-0.65821-0.89177 0-1.6137 0.66883-0.72191 0.65821-1.1466 1.7411-0.42466 1.0829-0.42466 2.3568 0 1.3377 0.48835 2.0277 0.49897 0.67945 1.412 0.67945z"/>
 </g>
 <use transform="rotate(181.04 64.88 56.09)" xlink:href="#a"/>
</svg>
