<svg width="480" height="480" version="1.1" viewBox="0 0 127 127" xmlns="http://www.w3.org/2000/svg" xmlns:xlink="http://www.w3.org/1999/xlink"><g fill="#e3654f" stroke-width=".32962" aria-label="木"><path d="m17.607 17.586q0.60346 1.1155 1.4264 1.9932 0.83204 0.86861 2.0115 1.6641l-0.70403 1.0149q-0.9509-0.74975-1.6732-1.5361-0.71318-0.79546-1.2618-1.6915v4.2699h-1.0332v-4.3431q-0.55774 0.93262-1.2709 1.7372-0.70403 0.80461-1.6915 1.6275l-0.68575-1.0058q1.1521-0.8229 1.9841-1.7281 0.83204-0.91433 1.4081-2.0024h-2.9716v-1.0332h3.2276v-1.6092h1.0332v1.6092h3.2367v1.0332z"/></g><g fill="#1d4ed8" stroke-width=".17388" aria-label="c"><path d="m17.001 38.253q-1.2041 0-1.8603-0.65112-0.65112-0.65112-0.65112-1.881 0-1.0284 0.43925-1.8293 0.43925-0.80098 1.2196-1.2557 0.78548-0.45992 1.8242-0.45992 0.95601 0 1.7208 0.43408l-0.27388 1.3849q-0.62012-0.58911-1.4108-0.58911-0.58911 0-1.0387 0.28939-0.44442 0.28939-0.69763 0.80098-0.25321 0.50643-0.25321 1.1627 0 0.7028 0.30489 1.0335 0.30489 0.33073 0.91984 0.33073 0.77514 0 1.7001-0.53743l-0.28939 1.4263q-0.76998 0.34106-1.6536 0.34106z"/></g><g transform="rotate(-9.9655 20.311 25.28)"><g id="a"><path d="m25.095 28.681 3.703 4.677 1.9406-2.7027z" fill="#999"/><path d="m29.13 31.991s5.2766 3.0523 8.9296 7.8098l0.67963-0.76459c-1.6493-2.9546-9.0167-7.763-9.0167-7.763z" fill="#999"/></g></g><use transform="matrix(-.23347 1.0498 -.96968 -.31364 133.64 7.265)" xlink:href="#a"/><g fill="#ef4444" stroke-width=".32962" aria-label="一丨"><path d="m98.204 17.111h8.0735v1.1155h-8.0735z"/><path d="m110.81 13.746h1.1338v8.3387h-1.1338z"/></g><g fill="#1d4ed8" stroke-width=".17388" aria-label="f"><path d="m103.86 26.255h-1.4108l0.2222-1.1627h1.4108l0.0827-0.40308q0.14986-0.73897 0.40307-1.1369 0.25322-0.40307 0.72347-0.5581t1.2764-0.15503h1.2402l-0.2222 1.1627h-1.1886q-0.33589 0-0.48575 0.14469-0.1447 0.14469-0.23255 0.55294l-0.0827 0.39274h1.7777l-0.2222 1.1627h-1.7777l-0.89916 4.625h-1.5141z"/></g><g fill="#ec6982" stroke-width=".32962" aria-label="口"><path d="m105.85 67.028v-7.5158h6.8392v7.4701h-1.0515v-0.74061h-4.7362v0.78632zm1.0515-6.4552v4.6082h4.7362v-4.6082z"/></g><g fill="#1d4ed8" stroke-width=".17388" aria-label="i"><path d="m108.77 77.946q-0.14469 0-0.14469-0.13436l0.29455-1.4934q0.0207-0.13953 0.16537-0.13953h1.204q0.1447 0 0.1447 0.13436l-0.29456 1.4934q-0.0207 0.13953-0.16536 0.13953zm0.60461 6.8781q-1.0077 0-1.4728-0.29455-0.46509-0.29456-0.46509-0.93534 0-0.29455 0.0982-0.72864l0.62011-2.7078h-1.2196l0.22221-1.1627h2.7285l-0.85783 3.9429q-0.0465 0.18603-0.0465 0.31522 0 0.40824 0.72347 0.40824h1.4366l-0.23254 1.1627z"/></g><g transform="scale(.94858 1.0542)" fill="#1e3a8a" stroke-width=".19611" aria-label="kcfi"><path d="m46.392 86.129h3.1106l-1.6137 8.302 4.289-3.6733h3.9281l-5.3613 4.4376 3.3229 7.4527h-3.3017l-2.3568-5.563-1.2315 1.0192-0.87054 4.5438h-3.1106z"/><path d="m62.221 102.96q-2.4736 0-3.8219-1.3377-1.3377-1.3377-1.3377-3.8644 0-2.1127 0.90239-3.7582 0.90239-1.6455 2.5055-2.5798 1.6137-0.94486 3.7476-0.94486 1.964 0 3.5352 0.89177l-0.56267 2.8452q-1.274-1.2103-2.8983-1.2103-1.2103 0-2.1339 0.59452-0.91301 0.59452-1.4332 1.6455-0.5202 1.0404-0.5202 2.3887 0 1.4438 0.62636 2.1233 0.62636 0.67945 1.8897 0.67945 1.5925 0 3.4928-1.1041l-0.59452 2.9301q-1.5818 0.70068-3.3972 0.70068z"/><path d="m73.559 93.147h-2.8983l0.4565-2.3887h2.8983l0.16986-0.82808q0.30787-1.5181 0.82808-2.3356 0.5202-0.82808 1.4863-1.1466 0.96609-0.31849 2.6222-0.31849h2.5479l-0.4565 2.3887h-2.4418q-0.69006 0-0.99794 0.29726-0.29726 0.29726-0.47774 1.136l-0.16986 0.80684h3.652l-0.4565 2.3887h-3.652l-1.8472 9.5016h-3.1106z"/><path d="m88.337 88.603q-0.29726 0-0.29726-0.27602l0.60513-3.0681q0.04247-0.28664 0.33972-0.28664h2.4736q0.29726 0 0.29726 0.27602l-0.60513 3.0681q-0.04246 0.28664-0.33972 0.28664zm1.2421 14.13q-2.0702 0-3.0257-0.60513-0.95547-0.60514-0.95547-1.9216 0-0.60513 0.20171-1.4969l1.274-5.563h-2.5055l0.4565-2.3887h5.6054l-1.7623 8.1003q-0.09555 0.38219-0.09555 0.6476 0 0.8387 1.4863 0.8387h2.9513l-0.47774 2.3887z"/></g><use transform="matrix(-.659 .38025 -.38025 -.659 129.07 77.378)" xlink:href="#a"/><g stroke-width=".58524" aria-label="枯"><path d="m61.229 55.228c-0.60558 0-0.90796 0.15145-0.90796 0.45424 0 0.25954 0.12959 0.67068 0.38912 1.233 0.25954 0.56232 0.45418 1.6219 0.58394 3.1791l1.1028 14.793-0.25942 2.8551c0 0.47581 0.32475 0.99469 0.97358 1.557 0.64884 0.60558 1.4487 0.90847 2.4004 0.90847 0.7786 0 1.1679-0.45434 1.1679-1.3627v-0.19482l-0.1943-2.5952 17.648-0.38912c0.47581-0.04326 0.8651-0.10831 1.1679-0.19482 0.34605-0.08651 0.51935-0.32435 0.51935-0.71365 0-0.43256-0.54073-1.3194-1.6221-2.6603l1.6221-12.587c0.04325-0.25953 0.12965-0.49737 0.25942-0.71365 0.17302-0.25953 0.25942-0.54057 0.25942-0.84336 0-0.34604-0.28104-0.82224-0.84336-1.4278-0.51907-0.64884-1.2112-0.97307-2.0764-0.97307h-0.38912c-0.12977 0-0.25987 0.02186-0.38964 0.06511l-7.9804 0.32401 0.0021-0.09922-3.8949 0.19482-5.17e-4 0.09922-5.4503 0.19482c-2.1196-0.73534-3.4821-1.1033-4.0876-1.1033zm20.244 4.023-1.2325 12.847-14.015 0.38912-0.97307-12.652z" fill="#ec6982"/><path d="m70.702 24.214c-0.47581 0-0.71365 0.12959-0.71365 0.38912 0 0.21628 0.15145 0.62742 0.45424 1.233 0.34604 0.56232 0.51883 1.2758 0.51883 2.141l-0.06511 13.561-11.03 0.58394h-0.64906c-1.2112 0-2.0116-0.06505-2.4009-0.19482-0.34604-0.12977-0.62708-0.19482-0.84336-0.19482-0.17302 0-0.25942 0.10825-0.25942 0.32453 0 0.90837 0.54073 1.9034 1.6221 2.9848 0.3893 0.3893 1.1247 0.58394 2.2061 0.58394l11.29-0.58394-0.06511 11.095-0.39998 0.01447 0.21756 0.07596 3.9047-0.30024 0.17208-0.03462 0.25838-11.045 15.766-0.84336c1.0381-0.08651 1.5575-0.4326 1.5575-1.0382 0-0.21628-0.1733-0.54103-0.51935-0.97358-0.30279-0.47581-0.73527-0.90829-1.2976-1.2976-0.56232-0.3893-1.0812-0.58394-1.557-0.58394-0.43256 0-0.97329 0.08691-1.6221 0.25993-0.64884 0.17302-1.5789 0.30261-2.79 0.38912l-9.4728 0.51883 0.25942-14.793c0-1.0381-0.93002-1.7303-2.79-2.0764-0.69209-0.12977-1.276-0.1943-1.7518-0.1943z" fill="#ef4444"/><path d="m45.138 23.565c-0.51907 0-0.77876 0.19464-0.77876 0.58394 0 0.12977 0.19464 0.51905 0.58394 1.1679 0.3893 0.60558 0.58394 1.341 0.58394 2.2061l-0.12971 10.771-7.5913 0.58394h-0.77876c-0.73535 0-1.6435-0.10825-2.7249-0.32453-0.56232 0-0.51913 0.64898 0.12971 1.9467 0.47581 0.73535 0.90829 1.2542 1.2976 1.557 0.3893 0.25953 0.8655 0.38912 1.4278 0.38912 0.60558 0 1.254-0.0432 1.9461-0.12971l5.5154-0.45424c-3.1144 8.9107-7.051 16.783-11.809 23.618-0.43256 0.60558-0.64854 1.1031-0.64854 1.4924 0 0.34604 0.12959 0.51935 0.38912 0.51935 0.73535 0 2.2711-1.4494 4.607-4.3475 4.1958-5.2339 6.964-9.9704 8.3049-14.209l-0.06511 0.71365c-0.12977 1.5572-0.1943 4.2822-0.1943 8.1752 0 3.8498-0.08691 8.4566-0.25993 13.82v2.0112c0 1.2544-0.10773 2.2713-0.32401 3.0499-0.17302 0.82186-0.25993 1.4922-0.25993 2.0112 0 0.51907 0.2597 0.97341 0.77876 1.3627 0.51907 0.3893 1.0385 0.64848 1.5575 0.77825 0.51907 0.17302 0.80011 0.25993 0.84336 0.25993 0.82186 0 1.2325-0.54073 1.2325-1.6221l0.38964-30.106c1.5139 1.6005 3.1793 3.6551 4.9961 6.164 0.56232 0.82186 1.0812 1.233 1.557 1.233 0.51907 0 1.0379-0.2597 1.557-0.77876 0.56232-0.56232 0.84388-1.0817 0.84388-1.5575 0-0.86511-2.1416-3.3304-6.4239-7.3964-0.43256-0.43256-0.84318-0.64906-1.2325-0.64906-0.34605 0-0.75719 0.19464-1.233 0.58394l0.06511-5.4498 8.3049-0.64906c0.99488-0.08651 1.4924-0.3894 1.4924-0.90847 0-0.60558-0.64898-1.3623-1.9467-2.2707-0.47581-0.34605-0.8651-0.51935-1.1679-0.51935-0.30279 0-0.64888 0.06505-1.0382 0.19482-0.3893 0.12977-1.0378 0.23802-1.9461 0.32453l-3.6339 0.25942 0.12971-11.809c0-0.47581-0.12959-0.84324-0.38912-1.1028-0.21628-0.30279-0.80021-0.62702-1.7518-0.97307-0.90837-0.34605-1.6437-0.51935-2.2061-0.51935z" fill="#e3654f"/></g><g fill="#999" stroke-width=".049199" aria-label="（字根）"><path d="m10.751 29.476q-0.31636-0.52909-0.49091-1.1836-0.16909-0.65455-0.16909-1.2709 0-0.62182 0.16909-1.2709 0.17455-0.65455 0.49091-1.1836h0.66546q-0.31636 0.55091-0.49091 1.2055-0.16909 0.64909-0.16909 1.2491 0 0.59455 0.16909 1.2491 0.17455 0.65455 0.49091 1.2055z"/><path d="m16.353 25.647h-3.3273v0.66546h-0.58909v-1.2327h2.0182l-0.21273-0.51818 0.68728-0.09818 0.25636 0.61637h1.7618v1.2327h-0.59455zm0.70909 1.8436v0.56728h-1.9909v0.70364q0 0.31091-0.06546 0.46364-0.06 0.15273-0.21818 0.20727-0.15273 0.06-0.46364 0.06h-0.74727l-0.11455-0.56182h0.66q0.14727 0 0.21273-0.02182 0.06546-0.02727 0.08727-0.09273 0.02182-0.07091 0.02182-0.21818v-0.54h-2.1327v-0.56728h2.1327v-0.26182l0.78546-0.52909h-2.0127v-0.56182h2.94v0.55637l-1.0855 0.75818v0.03818z"/><path d="m19.254 27.633-0.37636-0.33818v2.22h-0.55637v-2.1818q-0.22909 0.55091-0.51273 0.99273l-0.16364-0.77455q0.18546-0.27818 0.36-0.68182 0.18-0.40909 0.31091-0.83455h-0.55637v-0.55637h0.56182v-0.91637h0.55637v0.91637h0.52909v0.55637h-0.52909v0.54546q0.13636 0.10909 0.24546 0.20182 0.10909 0.08727 0.18546 0.14727l0.26727 0.21818zm2.4436 0.69818q0.34909 0.32182 0.88909 0.56182l-0.30546 0.55091q-0.69818-0.39818-1.1291-0.89455-0.42546-0.50182-0.66546-1.2273h-0.34364v1.4564l0.85091-0.34909 0.10909 0.55091-1.4291 0.57818-0.26727-0.50182q0.10909-0.05455 0.14182-0.10364 0.03818-0.05454 0.03818-0.16909v-4.0527h2.6346v2.5909h-1.1782q0.14182 0.34909 0.31636 0.61091 0.47455-0.32727 0.78546-0.57273l0.32182 0.39818q-0.28364 0.22909-0.76909 0.57273zm-0.03273-2.5473v-0.50182h-1.5218v0.50182zm0 0.50728h-1.5218v0.49091h1.5218z"/><path d="m23.427 29.476q0.31636-0.55091 0.48546-1.2055 0.17455-0.65455 0.17455-1.2491 0-0.6-0.17455-1.2491-0.16909-0.65455-0.48546-1.2055h0.66546q0.31636 0.52909 0.48546 1.1836 0.17455 0.64909 0.17455 1.2709 0 0.61637-0.17455 1.2709-0.16909 0.65455-0.48546 1.1836z"/><path d="m102.83 73.926q-0.31636-0.52909-0.49091-1.1836-0.16909-0.65455-0.16909-1.2709 0-0.62182 0.16909-1.2709 0.17455-0.65455 0.49091-1.1836h0.66546q-0.31637 0.55091-0.49091 1.2055-0.1691 0.64909-0.1691 1.2491 0 0.59455 0.1691 1.2491 0.17454 0.65455 0.49091 1.2055z"/><path d="m108.43 70.097h-3.3273v0.66546h-0.5891v-1.2327h2.0182l-0.21272-0.51818 0.68727-0.09818 0.25637 0.61637h1.7618v1.2327h-0.59455zm0.7091 1.8436v0.56728h-1.9909v0.70364q0 0.31091-0.0655 0.46364-0.06 0.15273-0.21818 0.20727-0.15273 0.06-0.46364 0.06h-0.74727l-0.11455-0.56182h0.66q0.14728 0 0.21273-0.02182 0.0655-0.02727 0.0873-0.09273 0.0218-0.07091 0.0218-0.21818v-0.54h-2.1327v-0.56728h2.1327v-0.26182l0.78546-0.52909h-2.0127v-0.56182h2.94v0.55637l-1.0855 0.75818v0.03818z"/><path d="m111.33 72.083-0.37636-0.33818v2.22h-0.55637v-2.1818q-0.22909 0.55091-0.51273 0.99273l-0.16363-0.77455q0.18545-0.27818 0.36-0.68182 0.18-0.40909 0.31091-0.83455h-0.55637v-0.55637h0.56182v-0.91637h0.55637v0.91637h0.52909v0.55637h-0.52909v0.54546q0.13636 0.10909 0.24546 0.20182 0.10909 0.08727 0.18545 0.14727l0.26727 0.21818zm2.4436 0.69818q0.34909 0.32182 0.8891 0.56182l-0.30546 0.55091q-0.69818-0.39818-1.1291-0.89455-0.42546-0.50182-0.66546-1.2273h-0.34364v1.4564l0.85091-0.34909 0.10909 0.55091-1.4291 0.57818-0.26728-0.50182q0.10909-0.05455 0.14182-0.10364 0.0382-0.05455 0.0382-0.16909v-4.0527h2.6346v2.5909h-1.1782q0.14182 0.34909 0.31637 0.61091 0.47455-0.32728 0.78546-0.57273l0.32182 0.39818q-0.28364 0.22909-0.7691 0.57273zm-0.0327-2.5473v-0.50182h-1.5218v0.50182zm0 0.50728h-1.5218v0.49091h1.5218z"/><path d="m115.5 73.926q0.31636-0.55091 0.48546-1.2055 0.17454-0.65455 0.17454-1.2491 0-0.6-0.17454-1.2491-0.1691-0.65455-0.48546-1.2055h0.66546q0.31636 0.52909 0.48545 1.1836 0.17455 0.64909 0.17455 1.2709 0 0.61637-0.17455 1.2709-0.16909 0.65455-0.48545 1.1836z"/></g></svg>
