<svg width="480" height="480" version="1.1" viewBox="0 0 127 127" xmlns="http://www.w3.org/2000/svg" xmlns:xlink="http://www.w3.org/1999/xlink"><g fill="#f87171" stroke-width=".32962" aria-label="丿一"><path d="m8.2173 23.987q1.2435-0.86861 1.8104-1.4904 0.57603-0.62174 0.80461-1.4721 0.23773-0.85032 0.23773-2.3681v-2.1761l1.0972 0.0091v2.167q-0.0091 1.6641-0.29258 2.6973-0.28344 1.024-0.93261 1.8012-0.64003 0.77718-1.9018 1.7189z"/><path d="m15.068 20.338h8.0735v1.1155h-8.0735z"/></g><g fill="#1d4ed8" stroke-width=".17388" aria-label="t"><path d="m15.197 32.561q-0.99218 0-1.4676-0.29456-0.47025-0.29972-0.47025-0.93017 0-0.25321 0.09302-0.7338l0.52193-2.6923h-1.4831l0.22221-1.1627h1.4831l0.31522-1.6433h1.5141l-0.32039 1.6433h1.9792l-0.22221 1.1627h-1.9792l-0.5426 2.7802q-0.03617 0.19637-0.03617 0.28422 0 0.22221 0.17053 0.32556 0.17053 0.09818 0.54777 0.09818h1.1627l-0.22221 1.1627z"/></g><g transform="rotate(-19.202 17.983 31.884)"><g id="a"><path d="m25.095 28.681 3.703 4.677 1.9406-2.7027z" fill="#999"/><path d="m29.13 31.991s5.2766 3.0523 8.9296 7.8098l0.67963-0.76459c-1.6493-2.9546-9.0167-7.763-9.0167-7.763z" fill="#999"/></g></g><use transform="rotate(120.1 65.519 48.628)" xlink:href="#a"/><g transform="translate(1.5875)" fill="#f87171" stroke-width=".32962" aria-label="丨丨"><path d="m103.31 12.687h1.1338v8.3387h-1.1338z"/><path d="m109.56 12.518h1.1338v8.3387h-1.1338z"/></g><g fill="#1d4ed8" stroke-width=".17388" aria-label="u"><path d="m106.79 29.442q-0.63562 0-0.98702-0.3669-0.3514-0.3669-0.3514-1.0439 0-0.31006 0.0878-0.75964l0.73897-3.7672h1.5038l-0.67696 3.5347q-0.0517 0.26872-0.0517 0.49092 0 0.67179 0.56844 0.67179 0.42891 0 0.72863-0.37724 0.30489-0.37724 0.43925-1.0594l0.63045-3.2608h1.5038l-1.1214 5.7877h-1.3539v-0.85783q-0.21188 0.46509-0.65629 0.73897-0.44442 0.26872-1.0025 0.26872z"/></g><g transform="scale(.94858 1.0542)" fill="#1e3a8a" stroke-width=".19611" aria-label="ltuu"><path d="m46.603 103.76q-2.0702 0-3.0257-0.60514-0.95547-0.60513-0.95547-1.9109 0-0.55205 0.20171-1.5075l2.1551-10.213h-3.2486l0.4565-2.3887h6.3486l-2.6541 12.782q-0.03185 0.14862-0.0637 0.3185-0.02123 0.15924-0.02123 0.29725 0 0.8387 1.4863 0.8387h2.9513l-0.47774 2.3887z"/><path d="m59.873 103.71q-2.0383 0-3.015-0.60514-0.96609-0.61575-0.96609-1.9109 0-0.5202 0.1911-1.5075l1.0723-5.5311h-3.0469l0.4565-2.3887h3.0469l0.6476-3.376h3.1106l-0.65821 3.376h4.0661l-0.4565 2.3887h-4.0661l-1.1147 5.7116q-0.07432 0.40343-0.07432 0.5839 0 0.45651 0.35034 0.66883 0.35034 0.20171 1.1253 0.20171h2.3887l-0.4565 2.3887z"/><path d="m69.333 103.96q-1.3058 0-2.0277-0.75376-0.72191-0.75377-0.72191-2.1445 0-0.63698 0.18048-1.5606l1.5181-7.7393h3.0894l-1.3907 7.2616q-0.10616 0.55205-0.10616 1.0086 0 1.3801 1.1678 1.3801 0.88116 0 1.4969-0.77499 0.62636-0.775 0.90239-2.1764l1.2952-6.6989h3.0894l-2.3038 11.89h-2.7815v-1.7623q-0.43527 0.95547-1.3483 1.5181-0.91301 0.55205-2.0596 0.55205z"/><path d="m82.423 103.96q-1.3058 0-2.0277-0.75376-0.72191-0.75377-0.72191-2.1445 0-0.63698 0.18048-1.5606l1.5181-7.7393h3.0894l-1.3907 7.2616q-0.10616 0.55205-0.10616 1.0086 0 1.3801 1.1678 1.3801 0.88116 0 1.4969-0.77499 0.62636-0.775 0.90239-2.1764l1.2952-6.6989h3.0894l-2.3037 11.89h-2.7815v-1.7623q-0.43527 0.95547-1.3483 1.5181-0.91301 0.55205-2.0596 0.55205z"/></g><path d="m67.463 35.903c-0.2638 0-0.39584 0.13152-0.39584 0.39532 0 0.21983 0.17588 0.61544 0.52762 1.187 0.3957 0.5276 0.59376 1.341 0.59376 2.4402l0.065629 22.819c0 0.35174-0.13152 1.5824-0.39532 3.6928v0.26407c0 1.0552 0.83505 1.8464 2.5058 2.374l0.85731 0.26407c0.74744 0 1.1214-0.54982 1.1214-1.649l-0.19792-29.216c0-1.275-1.0553-2.0668-3.1657-2.3745-0.70347-0.1319-1.2089-0.1974-1.5167-0.1974z" fill="#dd2e2e" stroke-width=".59486" style="font-variant-caps:normal;font-variant-east-asian:normal;font-variant-ligatures:normal;font-variant-numeric:normal"/><path d="m81.445 24.229c-0.57157 0-0.85731 0.11038-0.85731 0.33021 0 0.21984 0.10986 0.4834 0.3297 0.79117 0.6595 0.83537 0.98909 1.8246 0.98909 2.9678l-0.13178 50.584c-2.9897-0.87934-5.3422-1.7149-7.0569-2.5063-1.6707-0.7914-2.7038-1.187-3.0996-1.187s-0.59376 0.13204-0.59376 0.39584c0 0.83537 1.2533 2.1764 3.7595 4.023 2.2863 1.8026 4.155 3.0555 5.6059 3.7589 1.4949 0.74744 2.462 1.1214 2.9016 1.1214 0.48364 0 1.0995-0.3301 1.8469-0.9896 0.74744-0.6595 1.1209-1.4946 1.1209-2.5058l-0.13178-2.2422 0.13178-51.969c0-0.96727-0.76955-1.6708-2.3084-2.1105-1.0992-0.30777-1.9342-0.46199-2.5058-0.46199z" fill="#dd2e2e" stroke-width=".59486" style="font-variant-caps:normal;font-variant-east-asian:normal;font-variant-ligatures:normal;font-variant-numeric:normal"/><path d="m50.848 47.575-0.003101-0.001034-5.4121 0.46767c-4.0004 8.2198-8.6157 15.517-13.847 21.891-0.57157 0.70347-0.85731 1.2533-0.85731 1.649 0 0.35174 0.1537 0.52762 0.46147 0.52762 0.35174 0 1.0114-0.3956 1.9787-1.187 2.3302-1.8466 4.9019-4.5287 7.7158-8.046 2.8139-3.5613 4.8806-6.9907 6.1996-10.288l-0.066146 0.92346c-0.2638 3.6932-0.39584 9.079-0.39584 16.158v6.2653c0 1.5388-0.087682 2.6601-0.26355 3.3636-0.1319 0.70347-0.19792 1.1651-0.19792 1.3849 0 0.9233 0.76954 1.7145 2.3084 2.374 0.57157 0.21983 0.94499 0.3297 1.1209 0.3297 0.83537 0 1.2532-0.5493 1.2532-1.6485v-27.765c3.3415 3.4294 6.1334 6.683 8.3757 9.7606 0.61554 0.7914 1.1654 1.187 1.649 1.187 0.48364 0 1.0329-0.32958 1.6485-0.98909 0.61554-0.70347 0.92346-1.2311 0.92346-1.5828 0-0.3957-1.143-1.8688-3.4292-4.4189-2.2423-2.5501-4.3967-4.6823-6.4632-6.397-0.83537-0.74744-1.4074-1.1214-1.7151-1.1214s-0.63735 0.13204-0.98909 0.39584v-3.2313l0.004651-5.16e-4z" fill="#475569" stroke-width=".59486" style="font-variant-caps:normal;font-variant-east-asian:normal;font-variant-ligatures:normal;font-variant-numeric:normal"/><path d="m50.847 43.948-0.003618 0.017053-4.0886 0.30696v0.006718l-10.354 0.79117c-0.21983 0.043967-0.43956 0.066146-0.65939 0.066146h-0.92346c-0.43967 0-1.2092-0.11038-2.3084-0.33021-0.35174 0-0.52762 0.15422-0.52762 0.46199l0.3297 0.85731c0.21984 0.57157 0.59378 1.1652 1.1214 1.7808 0.57157 0.57157 1.2091 0.85731 1.9125 0.85731 0.74744 0 1.517-0.043841 2.3084-0.13178l7.782-0.59376c-7.79e-4 0.001599-0.001806 0.003052-0.002584 0.004651l5.4121-0.46767 0.003101 0.001034 11.998-0.98909c1.0112-0.087934 1.5172-0.37368 1.5172-0.85731 0-0.2638-0.19806-0.63723-0.59376-1.1209s-0.85733-0.9236-1.3849-1.3193c-0.5276-0.3957-0.94539-0.59325-1.2532-0.59325s-0.79157 0.10986-1.4511 0.3297c-0.6595 0.21983-1.4729 0.35136-2.4402 0.39532l-6.3934 0.5271z" fill="#ef4444" stroke-width=".59486" style="font-variant-caps:normal;font-variant-east-asian:normal;font-variant-ligatures:normal;font-variant-numeric:normal"/><path d="m46.719 35.602c0.0353-0.010449 0.066369-0.018947 0.1018-0.029455l-0.065629 8.6992 4.0886-0.30696 0.003618-0.017053-0.003618 5.17e-4v-9.5979c-0.007308-0.00251-0.083199-0.028939-0.083199-0.028939l-3.993 1.232-0.048576 0.048576z" fill="#475569" stroke-width=".59486" style="font-variant-caps:normal;font-variant-east-asian:normal;font-variant-ligatures:normal;font-variant-numeric:normal"/><path d="m46.719 35.602 0.048576-0.048576 3.993-1.232s0.075891 0.026429 0.083199 0.028939v-0.096635c3.1216-1.1431 6.2215-2.462 9.2992-3.9569 0.43967-0.21984 0.65939-0.54994 0.65939-0.9896 0-1.0552-0.61533-2.2642-1.8464-3.6272-0.5276-0.5276-0.96756-0.79117-1.3193-0.79117-0.2638 0-0.54954 0.32958-0.85731 0.98909-0.2638 0.61554-0.7476 1.121-1.4511 1.5167-5.8036 3.4734-12.64 6.5732-20.51 9.2992-1.0112 0.35174-1.5167 0.74734-1.5167 1.187 0 0.35174 0.3074 0.52762 0.92294 0.52762 2.0112 0 6.1791-0.93693 12.495-2.8065z" fill="#ef4444" stroke-width=".59486" style="font-variant-caps:normal;font-variant-east-asian:normal;font-variant-ligatures:normal;font-variant-numeric:normal"/><g fill="#666" stroke-width=".31873" aria-label="（补码）"><path d="m75.763 95.056q-0.32043-0.5359-0.49723-1.1989-0.17127-0.66297-0.17127-1.2873 0-0.62982 0.17127-1.2873 0.17679-0.66297 0.49723-1.1989h0.67402q-0.32043 0.558-0.49723 1.221-0.17127 0.65744-0.17127 1.2652 0 0.6022 0.17127 1.2652 0.17679 0.66297 0.49723 1.221z"/><path d="m78.304 90.995q-0.082871-0.22099-0.12707-0.35358l-0.17679-0.4696 0.56905-0.17127q0.15469 0.43093 0.30938 0.82871zm3.6408 2.2596q-0.16574-0.13812-0.51932-0.40883-0.34806-0.27071-0.48065-0.37568l-0.17127-0.13259v2.7845h-0.62982v-5.0386h0.62982v1.5138l0.23204 0.16574q0.19889 0.14917 0.63534 0.4696 0.44198 0.32043 0.65192 0.48618zm-2.1215-0.9171q-0.29834 0.35911-0.58562 0.67402l0.5801 0.44198-0.33701 0.4475-0.80661-0.63534v1.8618h-0.58562v-2.0055q-0.30938 0.33701-0.64087 0.61877l-0.21546-0.59667q0.41436-0.35358 0.75689-0.75689 0.34806-0.4033 0.5801-0.79556h-1.1491v-0.5801h1.8121v0.5801q-0.29834 0.48618-0.558 0.82871v0.17679q0.10497 0.07182 0.14364 0.09945 0.38121-0.40883 0.60772-0.70716z"/><path d="m87.094 92.31h0.49722q-0.07182 1.7071-0.08839 1.906-0.02762 0.35358-0.11602 0.53037-0.08287 0.17679-0.26519 0.24309-0.18232 0.07182-0.53037 0.07182h-0.73479l-0.10497-0.58562h0.65744q0.20994 0 0.30938-0.03315 0.10497-0.03315 0.14917-0.11602 0.0442-0.0884 0.04972-0.26519l0.07735-1.1878h-1.9447l0.17679-1.8397 0.56905 0.03867-0.11602 1.2375h0.81766l0.14917-1.4696h-1.6353v-0.56904h2.2707zm-4.1656-1.3867v-0.5359h1.895v0.5359h-0.69059q-0.14917 0.56905-0.33148 1.0166h0.90053v2.6463h-0.97235v0.37568h-0.50275v-1.9447q-0.18784 0.27624-0.29834 0.41988l-0.14917-0.74031q0.24309-0.32596 0.4475-0.79556 0.20442-0.47513 0.32596-0.97788zm0.80109 3.1325h0.48618v-1.5856h-0.48618zm1.1326-0.66849h1.8784v0.56905h-1.8784z"/><path d="m88.603 95.056q0.32043-0.558 0.4917-1.221 0.17679-0.66297 0.17679-1.2652 0-0.60772-0.17679-1.2652-0.17127-0.66297-0.4917-1.221h0.67402q0.32043 0.5359 0.4917 1.1989 0.17679 0.65744 0.17679 1.2873 0 0.6243-0.17679 1.2873-0.17127 0.66297-0.4917 1.1989z"/></g></svg>
