<svg width="480" height="480" version="1.1" viewBox="0 0 127 127" xmlns="http://www.w3.org/2000/svg" xmlns:xlink="http://www.w3.org/1999/xlink"><g fill="#f87171" stroke-width=".32962" aria-label="丶一"><path d="m9.6197 19.103q0.53945 0.52117 1.4172 1.4721 0.8869 0.9509 1.3989 1.5452l-0.93262 0.92347q-0.52117-0.65832-1.3532-1.6092-0.83204-0.9509-1.3532-1.4812z"/><path d="m15.691 20.338h8.0735v1.1155h-8.0735z"/></g><g fill="#1d4ed8" stroke-width=".17388" aria-label="h"><path d="m14.003 24.494h1.5038l-0.59944 3.1212q0.24805-0.48059 0.68213-0.74414 0.43408-0.26355 0.98702-0.26355 0.64079 0 0.99218 0.36173 0.3514 0.35657 0.3514 1.0232 0 0.17053-0.02067 0.34106-0.0052 0.03101-0.02067 0.14469-0.01034 0.06718-0.02584 0.14469-0.01034 0.07751-0.02584 0.14986l-0.72864 3.762h-1.5141l0.68729-3.5243q0.03617-0.11886 0.04134-0.25838 0.01033-0.14469 0.01033-0.26872 0-0.63562-0.56844-0.63562-0.43408 0-0.73897 0.37724-0.30489 0.37207-0.43925 1.0594l-0.62528 3.2504h-1.5141z"/></g><g transform="rotate(-19.202 17.983 31.884)"><g id="a"><path d="m25.095 28.681 3.703 4.677 1.9406-2.7027z" fill="#999"/><path d="m29.13 31.991s5.2766 3.0523 8.9296 7.8098l0.67963-0.76459c-1.6493-2.9546-9.0167-7.763-9.0167-7.763z" fill="#999"/></g></g><use transform="rotate(120.1 65.519 48.628)" xlink:href="#a"/><g fill="#f87171" stroke-width=".32962" aria-label="丿丿"><path d="m102.08 20.231q1.2435-0.86861 1.8104-1.4904 0.57603-0.62174 0.80461-1.4721 0.23772-0.85032 0.23772-2.3681v-2.1761l1.0972 0.0091v2.167q-9e-3 1.6641-0.29259 2.6973-0.28344 1.024-0.93261 1.8012-0.64003 0.77718-1.9018 1.7189z"/><path d="m111.23 20.231q1.2435-0.86861 1.8104-1.4904 0.57603-0.62174 0.80461-1.4721 0.23772-0.85032 0.23772-2.3681v-2.1761l1.0972 0.0091v2.167q-9e-3 1.6641-0.29259 2.6973-0.28344 1.024-0.93261 1.8012-0.64003 0.77718-1.9018 1.7189z"/></g><g fill="#1d4ed8" stroke-width=".17388" aria-label="q"><path d="m108.87 28.434q-0.67696 1.0077-1.6795 1.0077-0.75447 0-1.1937-0.57877-0.43925-0.57878-0.43925-1.5761 0-0.79581 0.20671-1.5038 0.21187-0.71313 0.57877-1.2557 0.3669-0.54777 0.84232-0.85783 0.48059-0.31523 1.0129-0.31523 0.58911 0 0.95601 0.32039 0.37207 0.32039 0.46509 0.9095l0.35139-1.08h1.3643l-1.5555 7.9892h-1.5038zm-0.98185-0.23254q0.38241 0 0.65629-0.24288 0.27388-0.24805 0.44958-0.62012t0.25838-0.76481q0.0827-0.39791 0.0827-0.7028 0-0.60978-0.22221-0.94051-0.21704-0.3359-0.62528-0.3359-0.38241 0-0.65113 0.25838-0.26871 0.25838-0.43924 0.65112-0.16537 0.39274-0.24288 0.80098-0.0775 0.40824-0.0775 0.7028 0 1.142 0.81132 1.1937z"/></g><g fill="#f87171" stroke-width=".32962" aria-label="丨"><path d="m105.52 59.319h1.1338v8.3387h-1.1338z"/></g><g fill="#1d4ed8" stroke-width=".17388" aria-label="i"><path d="m105.6 71.596q-0.1447 0-0.1447-0.13436l0.29456-1.4934q0.0207-0.13953 0.16536-0.13953h1.2041q0.14469 0 0.14469 0.13436l-0.29455 1.4934q-0.0207 0.13953-0.16536 0.13953zm0.60461 6.8781q-1.0077 0-1.4728-0.29455-0.46509-0.29456-0.46509-0.93534 0-0.29456 0.0982-0.72864l0.62011-2.7078h-1.2196l0.22221-1.1627h2.7285l-0.85783 3.9429q-0.0465 0.18603-0.0465 0.31522 0 0.40824 0.72347 0.40824h1.4366l-0.23254 1.1627z"/></g><g transform="scale(.94858 1.0542)" fill="#1e3a8a" stroke-width=".19611" aria-label="xhqi"><path d="m48.283 97.848-2.739-5.5842h3.1955l1.5712 3.3654 2.8452-3.3654h3.5246l-5.064 5.8708 2.9513 6.0195h-3.1743l-1.8048-3.7794-3.2168 3.7794h-3.5246z"/><path d="m60.587 87.635h3.0894l-1.2315 6.4123q0.50958-0.98732 1.4014-1.5288 0.89177-0.54144 2.0277-0.54144 1.3164 0 2.0383 0.74314 0.72191 0.73253 0.72191 2.102 0 0.35034-0.04246 0.70068-0.01062 0.0637-0.04247 0.29726-0.02123 0.13801-0.05308 0.29726-0.02123 0.15924-0.05308 0.30787l-1.4969 7.7287h-3.1106l1.412-7.2404q0.07431-0.24418 0.08493-0.53082 0.02123-0.29726 0.02123-0.55205 0-1.3058-1.1678-1.3058-0.89177 0-1.5181 0.77499-0.62636 0.76438-0.90239 2.1764l-1.2846 6.6777h-3.1106z"/><path d="m77.361 102.39q-1.3907 2.0702-3.4503 2.0702-1.55 0-2.4524-1.189-0.90239-1.189-0.90239-3.238 0-1.6349 0.42465-3.0894 0.43527-1.4651 1.189-2.5798 0.75376-1.1253 1.7305-1.7623 0.98732-0.6476 2.0808-0.6476 1.2103 0 1.964 0.65821 0.76438 0.65821 0.95547 1.8685l0.72191-2.2188h2.8027l-3.1955 16.413h-3.0894zm-2.0171-0.47774q0.78561 0 1.3483-0.49896 0.56267-0.50959 0.92362-1.274 0.36096-0.76437 0.53082-1.5712 0.16986-0.81746 0.16986-1.4438 0-1.2527-0.4565-1.9322-0.44589-0.69006-1.2846-0.69006-0.78561 0-1.3377 0.53082-0.55205 0.53082-0.90239 1.3377-0.33972 0.80684-0.49897 1.6455-0.15924 0.83869-0.15924 1.4438 0 2.3462 1.6668 2.4524z"/><path d="m89.453 90.109q-0.29726 0-0.29726-0.27602l0.60513-3.0681q0.04247-0.28664 0.33972-0.28664h2.4736q0.29726 0 0.29726 0.27603l-0.60513 3.0681q-0.04246 0.28664-0.33972 0.28664zm1.2421 14.13q-2.0702 0-3.0257-0.60514-0.95547-0.60513-0.95547-1.9216 0-0.60513 0.20171-1.4969l1.274-5.563h-2.5055l0.4565-2.3887h5.6054l-1.7623 8.1003q-0.09555 0.38219-0.09555 0.64759 0 0.8387 1.4863 0.8387h2.9513l-0.47774 2.3887z"/></g><use transform="rotate(150.01 57.47 58.38)" xlink:href="#a"/><g fill="#475569" stroke-width=".56802" aria-label="新"><path d="m40.785 63.192c-0.29388 0-0.46186 0.18904-0.50385 0.56689l-0.06305 0.69246c0 1.7633-2.12 5.4999-6.3603 11.21-0.54578 0.71372-0.83961 1.2177-0.8816 1.5115 0 0.29388 0.16798 0.4408 0.50384 0.4408 0.33587 0 0.92353-0.31489 1.7632-0.94464 3.4426-2.645 6.4442-6.0877 9.0051-10.328 0.16793-0.16793 0.25218-0.35697 0.25218-0.56689 0-0.67173-0.75564-1.3853-2.267-2.141-0.62975-0.29388-1.1126-0.4408-1.4485-0.4408z"/><path d="m55.269 62.877c-0.37785 0-0.96603 0.27277-1.7637 0.81856-0.37785 0.2519-0.56637 0.50361-0.56637 0.75551 0 0.2519 0.10479 0.50413 0.31471 0.75603 1.7213 2.435 2.9177 4.723 3.5894 6.8642 0.2519 0.62975 0.60892 0.94464 1.0707 0.94464 0.29388 0 0.6509-0.10531 1.0707-0.31523 1.1755-0.54578 1.7632-1.0913 1.7632-1.6371 0-1.0916-1.4276-3.5897-4.2824-7.4941-0.37785-0.46182-0.77648-0.69246-1.1963-0.69246z"/><path d="m42.548 39.954c-0.41983 0-0.81846 0.23116-1.1963 0.69298-0.37785 0.46182-0.56689 0.81832-0.56689 1.0702 0 0.20992 0.12585 0.48269 0.37775 0.81856 1.4694 1.7633 2.5821 3.3588 3.3378 4.7863 0.41983 0.71372 0.7974 1.0707 1.1333 1.0707 0.37785 0 0.88179-0.18904 1.5115-0.56689 0.67173-0.41983 1.0077-0.81846 1.0077-1.1963 0-0.41983-0.23116-0.96589-0.69298-1.6376-0.41983-0.67173-0.94431-1.3853-1.5741-2.141-0.58777-0.79768-1.1754-1.4696-1.7632-2.0154-0.58777-0.58777-1.1128-0.8816-1.5746-0.8816z"/><path d="m53.946 39.01c-0.37785 0-0.56637 0.35702-0.56637 1.0707-1e-6 1.9312-1.5324 4.8911-4.5971 8.8796l-11.336 0.69246h-0.4408c-0.58777 0-1.5114-0.12585-2.7709-0.37775-0.20992 0-0.31471 0.10479-0.31471 0.31471s0.20959 0.71385 0.62942 1.5115c0.58777 1.2175 1.4903 1.8262 2.7078 1.8262l1.5746-0.06305 8.5018-0.4408v5.2271l-7.4311 0.37776h-0.56689c-0.71372 0-1.5952-0.10479-2.6448-0.31471-0.20992 0-0.31523 0.10479-0.31523 0.31471 0 0.04198 0.04212 0.1889 0.12609 0.4408 0.67173 1.8053 1.6164 2.7078 2.8339 2.7078l1.8893-0.06305 6.1717-0.31471-0.06304 17.003c-1.5954-0.37785-3.0229-0.92339-4.2824-1.6371-1.3015-0.7557-2.1414-1.1338-2.5192-1.1338-0.37785 0-0.56637 0.16798-0.56637 0.50384 0 0.7557 1.2175 2.0995 3.6525 4.0308 0.71372 0.54578 1.4904 1.1334 2.3301 1.7632 1.0076 0.71372 1.7843 1.0707 2.3301 1.0707s1.1334-0.33596 1.7632-1.0077c0.62975-0.62975 0.94464-1.4696 0.94464-2.5192l-0.12609-2.5818 0.06305-15.681 9.509-0.44132c0.92363-0.08397 1.3854-0.33568 1.3854-0.75551 0-0.54578-0.39862-1.1334-1.1963-1.7632-0.7557-0.62975-1.2807-0.94464-1.5746-0.94464-0.2519 0-0.54573 0.06319-0.8816 0.18914-0.33587 0.12595-0.71343 0.20968-1.1333 0.25166-0.41983 0-0.86058 0.02107-1.3224 0.06305l-4.7863 0.25166v-5.2266l11.398-0.62994c0.92363-0.08397 1.3854-0.3778 1.3854-0.8816 0-0.71372-0.60873-1.4904-1.8262-2.3301-0.46182-0.33587-0.83938-0.50384-1.1333-0.50384-0.2519 0-0.52519 0.06319-0.81907 0.18914-0.29388 0.12595-1.0701 0.2518-2.3296 0.37776l-5.0385 0.31471c0.71372-0.71372 1.7005-1.9312 2.96-3.6525s1.8893-2.8129 1.8893-3.2747c0-0.71372-0.7767-1.4904-2.3301-2.3301-0.54578-0.33587-0.92386-0.50384-1.1338-0.50384z"/><path d="m81.089 50.538-3.8215 0.23771-0.02015 0.01034-0.12609 25.442c0 1.4694-0.08373 2.5189-0.25166 3.1486-0.12594 0.67173-0.18914 1.2178-0.18914 1.6376 0 0.41983 0.3149 0.92325 0.94464 1.511 0.62975 0.62975 1.4065 0.94464 2.3301 0.94464 0.71372 0 1.0707-0.58767 1.0707-1.7632z" fill="#ef4444"/><path d="m87.953 46.126c-0.29388 0-0.62984 0.08373-1.0077 0.25166-0.37785 0.12595-1.1335 0.23074-2.267 0.31471l-15.357 1.1333-0.21032 3.5295 0.06873 0.12454c0.0023-0.04277 5e-3 -0.08426 0.0072-0.12712l8.0605-0.56637 0.02015-0.01034 3.8215-0.23771v-0.0041l8.6274-0.56689c1.0076-0.08397 1.5115-0.3778 1.5115-0.8816 0-0.79768-0.67192-1.616-2.0154-2.4557-0.5038-0.33587-0.92349-0.50384-1.2594-0.50384z"/><path d="m69.179 51.48-0.06873-0.12454 0.21032-3.5295-0.0088 5.16e-4c0.08397-1.3015 0.12609-2.708 0.12609-4.2194v-4.345c3.2747-1.0916 6.8223-2.5612 10.643-4.4085 3.8205-1.8893 5.7309-3.2326 5.7309-4.0302 0-0.96562-0.62979-2.0156-1.8893-3.1492-0.46182-0.41983-0.86096-0.62942-1.1968-0.62942-0.29388 0-0.58772 0.3149-0.8816 0.94464-0.29388 0.62975-1.0706 1.4486-2.3301 2.4562-2.561 2.0572-6.0032 4.0092-10.328 5.8565-1.8473-0.96562-3.0652-1.4485-3.653-1.4485s-0.8816 0.16798-0.8816 0.50384c0 0.12595 0.14692 0.67149 0.4408 1.6371 0.33587 0.92363 0.50384 3.0858 0.50384 6.4864 0 9.2363-0.62979 16.563-1.8893 21.979-1.2595 5.3739-2.9598 9.656-5.101 12.847-0.79768 1.2175-1.1963 1.9942-1.1963 2.3301 0 0.37785 0.10479 0.56689 0.31471 0.56689 0.29388 0 0.56665-0.14692 0.81856-0.4408 0.29388-0.2519 0.46186-0.39882 0.50384-0.4408 0.08396-0.04198 0.14715-0.0841 0.18914-0.12609 2.7289-2.7289 4.9748-6.3813 6.7381-10.957 1.753-4.5495 2.8213-10.47 3.205-17.758z" fill="#ef4444"/><path d="m36.388 34.828c0.83967 0.16793 1.6374 0.2519 2.3931 0.2519h0.81868l7.2421-0.44082-0.12595-5.4159c0-0.67174-0.16793-1.3015-0.5038-1.8893-0.29388-0.58777-0.44082-0.94463-0.44082-1.0706 0-0.37785 0.27289-0.56678 0.81868-0.56678 0.58777 0 1.2805 0.14694 2.0782 0.44083s1.3015 0.54578 1.5114 0.7557 0.31488 0.54578 0.31488 1.0076l-0.06298 6.4864 4.975-0.31488c1.2595-0.12595 2.0572-0.2519 2.3931-0.37785s0.62975-0.18892 0.88165-0.18892c0.2519 0 0.77669 0.29388 1.5744 0.88165 0.83967 0.54578 1.2595 1.1336 1.2595 1.7633 0 0.46182-0.46182 0.73471-1.3855 0.81868l-19.144 1.2595c-0.7557 0.08397-1.2595 0.12595-1.5114 0.12595-1.0916 0-1.7843-0.2519-2.0782-0.7557-0.5038-0.58777-0.86066-1.1336-1.0706-1.6374-0.16793-0.5038-0.2519-0.77669-0.2519-0.81868 0-0.20992 0.10496-0.31488 0.31488-0.31488z" fill="#ef4444"/></g></svg>
